# Blender v2.69 (sub 0) OBJ File: 'arena.blend'
# www.blender.org
o Plane_Plane.001
v 35.636189 -0.314819 -16.938187
v -34.971298 -0.314819 -16.580214
v 35.799381 -0.314813 15.250035
v -34.808105 -0.314813 15.608010
vt 2.850373 -0.003708
vt 2.850373 6.214096
vt 0.015829 -0.003707
vt 0.015830 6.214097
vn -0.000000 1.000000 -0.000000
s off
f 1/1/1 2/2/1 3/3/1
f 2/2/1 4/4/1 3/3/1
o Plane.005_Plane.006
v -34.773445 -0.346442 15.682535
v -34.937477 -0.346448 -16.672926
v -34.773445 10.804526 15.682533
v -34.937477 10.804521 -16.672928
v -39.677944 10.797329 15.757318
v -34.763348 10.797329 15.732403
v -39.842278 10.797322 -16.656734
v -34.927681 10.797322 -16.681650
vt 2.350852 0.002525
vt 2.350853 6.868888
vt -0.015537 0.002525
vt -0.015537 6.868888
vt -0.025674 0.008170
vt 0.996123 0.008169
vt -0.025672 6.747397
vt 0.996125 6.747396
vn 0.999987 0.000001 -0.005070
vn 0.999987 -0.000001 -0.005070
vn -0.000000 1.000000 -0.000000
s off
f 5/5/2 6/6/2 7/7/2
f 6/6/3 8/8/3 7/7/3
f 9/9/4 10/10/4 11/11/4
f 10/10/4 12/12/4 11/11/4
o Plane.002_Plane.003
v 35.916183 -0.257294 15.303042
v -34.762646 -0.257294 15.661379
v 35.916183 5.443823 15.303041
v -34.762646 5.443823 15.661378
vt 1.009300 -0.018145
vt 1.009296 12.794638
vt -0.024201 -0.018146
vt -0.024199 12.794638
vn -0.005070 -0.000000 -0.999987
s off
f 13/13/5 14/14/5 15/15/5
f 14/14/5 16/16/5 15/15/5
o Plane.001_Plane.002
v 40.290661 -0.323372 -16.975988
v 40.290661 18.422235 -16.975990
v -39.707817 -0.323372 -16.570402
v -39.707817 18.422235 -16.570404
v 40.203262 18.421747 -21.891634
v -39.745243 18.421747 -21.486301
v 40.228176 18.421749 -16.977041
v -39.720329 18.421749 -16.571709
vt 3.773589 16.101770
vt 0.001261 16.101768
vt 3.773590 0.002829
vt 0.001262 0.002829
vt -0.004602 16.223726
vt -0.004591 0.012058
vt 0.991972 16.223726
vt 0.991973 0.012058
vn 0.005070 0.000000 0.999987
vn -0.000000 1.000000 -0.000001
vn -0.000000 1.000000 0.000000
s off
f 17/17/6 18/18/6 19/19/6
f 18/18/6 20/20/6 19/19/6
f 21/21/7 22/22/7 23/23/7
f 22/22/8 24/24/8 23/23/8
o Plane.004_Plane.005
v 35.635490 -0.310298 -17.030725
v 35.799530 -0.310292 15.324735
v 35.635490 10.840669 -17.030727
v 35.799530 10.840676 15.324733
v 40.539989 10.833473 -17.105515
v 35.625397 10.833473 -17.080599
v 40.704327 10.833478 15.308539
v 35.789734 10.833478 15.333456
vt -0.018942 6.816200
vt -0.018943 -0.015176
vt 2.335389 6.816199
vt 2.335389 -0.015177
vt 1.022201 6.797596
vt -0.010488 6.797596
vt 1.022203 -0.013477
vt -0.010486 -0.013477
vn -0.999987 -0.000001 0.005070
vn -0.999987 0.000001 0.005070
vn -0.000000 1.000000 -0.000000
s off
f 25/25/9 26/26/9 27/27/9
f 26/26/10 28/28/10 27/27/10
f 29/29/11 30/30/11 31/31/11
f 30/30/11 32/32/11 31/31/11
