# Blender v2.69 (sub 0) OBJ File: ''
# www.blender.org
o Icosphere
v 0.000000 -0.056044 0.000000
v 0.723607 0.044635 0.525725
v -0.276388 0.005671 0.850649
v -0.894426 0.028693 0.000000
v -0.276388 0.028987 -0.850649
v 0.723607 0.013396 -0.525725
v 0.276388 4.736427 0.850649
v -0.723607 4.736427 0.525725
v -0.723607 4.736427 -0.525725
v 0.276388 4.736427 -0.850649
v 0.894426 4.736423 0.000000
v 0.000000 5.289207 0.000000
v -0.162456 -0.019895 0.499995
v 0.425323 -0.019895 0.309011
v 0.262869 0.052804 0.809012
v 0.850648 0.013217 0.000000
v 0.425323 -0.019895 -0.309011
v -0.525730 -0.019893 0.000000
v -0.688189 0.013217 0.499997
v -0.162456 -0.019895 -0.499995
v -0.688189 0.013217 -0.499997
v 0.262869 0.013216 -0.809012
v 0.951058 4.289207 0.309013
v 0.951058 4.289207 -0.309013
v 0.000000 4.289207 1.000000
v 0.587786 4.289207 0.809017
v -0.951058 4.289207 0.309013
v -0.587786 4.289207 0.809017
v -0.587786 4.289207 -0.809017
v -0.951058 4.289207 -0.309013
v 0.587786 4.289207 -0.809017
v 0.000000 4.289207 -1.000000
v 0.688189 4.814944 0.499997
v -0.262869 4.814945 0.809012
v -0.850648 4.814943 0.000000
v -0.262869 4.814945 -0.809012
v 0.688189 4.814944 -0.499997
v 0.162456 5.139862 0.499995
v 0.525730 5.139859 0.000000
v -0.425323 5.139862 0.309011
v -0.425323 5.139862 -0.309011
v 0.162456 5.139862 -0.499995
vn 0.026171 -0.996407 0.080542
vn 0.144884 -0.984985 0.093875
vn -0.068517 -0.996407 0.049777
vn -0.068517 -0.996407 -0.049777
vn 0.026171 -0.996407 -0.080542
vn 0.970700 -0.039918 0.236954
vn 0.080390 -0.039913 0.995964
vn -0.924146 -0.039842 0.379955
vn -0.646915 -0.039844 -0.761520
vn 0.523366 -0.039770 -0.851180
vn 0.808947 -0.013341 0.587731
vn -0.308990 -0.013220 0.950973
vn -0.999912 -0.013291 0.000000
vn -0.308990 -0.013292 -0.950972
vn 0.808948 -0.013243 -0.587732
vn 0.408946 0.661699 0.628425
vn -0.471300 0.661698 0.583122
vn -0.700224 0.661699 -0.268031
vn 0.038531 0.661699 -0.748779
vn 0.724043 0.661695 -0.194735
vn 0.094491 -0.990194 0.102895
vn 0.052065 -0.985705 0.160234
vn 0.087884 -0.981303 0.171232
vn 0.094281 -0.995277 -0.023122
vn 0.077615 -0.996983 0.000000
vn 0.084688 -0.996408 0.000000
vn -0.130613 -0.991162 0.023196
vn -0.062792 -0.996983 0.045617
vn -0.062772 -0.996658 0.052269
vn -0.062419 -0.991065 -0.117876
vn -0.062792 -0.996983 -0.045617
vn -0.130613 -0.991162 -0.023196
vn 0.051128 -0.995277 -0.082519
vn 0.023985 -0.996984 -0.073813
vn -0.018789 -0.991065 -0.132052
vn 0.992077 0.125628 0.000000
vn 0.999724 -0.023476 0.000000
vn 0.971250 -0.039769 -0.234714
vn 0.306569 0.125629 0.943522
vn 0.308930 -0.023695 0.950789
vn 0.522831 -0.040100 0.851492
vn -0.802609 0.125627 0.583127
vn -0.808796 -0.023475 0.587621
vn -0.648225 -0.039733 0.760411
vn -0.802609 0.125627 -0.583127
vn -0.808796 -0.023475 -0.587621
vn -0.924146 -0.039842 -0.379955
vn 0.306569 0.125629 -0.943522
vn 0.308932 -0.023476 -0.950794
vn 0.075764 -0.039844 -0.996329
vn 0.574602 0.330388 0.748783
vn 0.794656 0.187595 0.577348
vn 0.889697 0.330385 0.315095
vn -0.534576 0.330386 0.777865
vn -0.303531 0.187597 0.934171
vn -0.024746 0.330386 0.943521
vn -0.904989 0.330385 -0.268032
vn -0.982246 0.187598 0.000000
vn -0.904989 0.330385 0.268032
vn -0.024746 0.330386 -0.943521
vn -0.303531 0.187597 -0.934171
vn -0.534576 0.330386 -0.777865
vn 0.889697 0.330385 -0.315095
vn 0.794656 0.187595 -0.577348
vn 0.574602 0.330388 -0.748783
vn 0.268034 0.943523 0.194737
vn 0.491119 0.794657 0.356822
vn 0.724042 0.661695 0.194735
vn -0.102381 0.943523 0.315091
vn -0.187595 0.794658 0.577345
vn 0.038531 0.661699 0.748779
vn -0.331305 0.943524 0.000000
vn -0.607060 0.794656 0.000000
vn -0.700224 0.661699 0.268031
vn -0.102381 0.943523 -0.315091
vn -0.187595 0.794658 -0.577345
vn -0.471300 0.661698 -0.583122
vn 0.268034 0.943523 -0.194737
vn 0.491119 0.794657 -0.356822
vn 0.408946 0.661699 -0.628425
s off
f 1//1 14//1 13//1
f 2//2 14//2 16//2
f 1//3 13//3 18//3
f 1//4 18//4 20//4
f 1//5 20//5 17//5
f 2//6 16//6 23//6
f 3//7 15//7 25//7
f 4//8 19//8 27//8
f 5//9 21//9 29//9
f 6//10 22//10 31//10
f 2//11 23//11 26//11
f 3//12 25//12 28//12
f 4//13 27//13 30//13
f 5//14 29//14 32//14
f 6//15 31//15 24//15
f 7//16 33//16 38//16
f 8//17 34//17 40//17
f 9//18 35//18 41//18
f 10//19 36//19 42//19
f 11//20 37//20 39//20
f 13//21 15//21 3//21
f 13//22 14//22 15//22
f 14//23 2//23 15//23
f 16//24 17//24 6//24
f 16//25 14//25 17//25
f 14//26 1//26 17//26
f 18//27 19//27 4//27
f 18//28 13//28 19//28
f 13//29 3//29 19//29
f 20//30 21//30 5//30
f 20//31 18//31 21//31
f 18//32 4//32 21//32
f 17//33 22//33 6//33
f 17//34 20//34 22//34
f 20//35 5//35 22//35
f 23//36 24//36 11//36
f 23//37 16//37 24//37
f 16//38 6//38 24//38
f 25//39 26//39 7//39
f 25//40 15//40 26//40
f 15//41 2//41 26//41
f 27//42 28//42 8//42
f 27//43 19//43 28//43
f 19//44 3//44 28//44
f 29//45 30//45 9//45
f 29//46 21//46 30//46
f 21//47 4//47 30//47
f 31//48 32//48 10//48
f 31//49 22//49 32//49
f 22//50 5//50 32//50
f 26//51 33//51 7//51
f 26//52 23//52 33//52
f 23//53 11//53 33//53
f 28//54 34//54 8//54
f 28//55 25//55 34//55
f 25//56 7//56 34//56
f 30//57 35//57 9//57
f 30//58 27//58 35//58
f 27//59 8//59 35//59
f 32//60 36//60 10//60
f 32//61 29//61 36//61
f 29//62 9//62 36//62
f 24//63 37//63 11//63
f 24//64 31//64 37//64
f 31//65 10//65 37//65
f 38//66 39//66 12//66
f 38//67 33//67 39//67
f 33//68 11//68 39//68
f 40//69 38//69 12//69
f 40//70 34//70 38//70
f 34//71 7//71 38//71
f 41//72 40//72 12//72
f 41//73 35//73 40//73
f 35//74 8//74 40//74
f 42//75 41//75 12//75
f 42//76 36//76 41//76
f 36//77 9//77 41//77
f 39//78 42//78 12//78
f 39//79 37//79 42//79
f 37//80 10//80 42//80
