# Blender v2.69 (sub 0) OBJ File: ''
# www.blender.org
o Cube.001
v 0.250790 -0.247554 -0.250790
v 0.250790 -0.247554 0.250790
v -0.250790 -0.247554 -0.250790
v 0.250790 0.254026 -0.250790
v -0.250790 0.254026 -0.250790
v 0.250790 0.254026 0.250790
v -0.250790 -0.247554 0.250790
v -0.250790 0.254026 0.250790
vn 0.000000 -1.000000 0.000000
vn 0.000000 1.000000 0.000000
vn 1.000000 0.000000 0.000000
vn 0.000000 -0.000000 1.000000
vn -1.000000 0.000000 0.000000
vn 0.000000 0.000000 -1.000000
s off
f 1//1 2//1 3//1
f 4//2 5//2 6//2
f 1//3 4//3 2//3
f 2//4 6//4 7//4
f 7//5 8//5 3//5
f 4//6 1//6 5//6
f 2//1 7//1 3//1
f 5//2 8//2 6//2
f 4//3 6//3 2//3
f 6//4 8//4 7//4
f 8//5 5//5 3//5
f 1//6 3//6 5//6
