# Blender v2.69 (sub 0) OBJ File: 'model.blend'
# www.blender.org
o Cube
v 0.102303 1.244381 -0.088346
v 0.085861 1.240531 0.101001
v -0.101948 1.244637 0.088153
v -0.084324 1.240608 -0.100849
v 0.133123 1.434083 -0.046355
v 0.048236 1.435474 0.130604
v -0.132411 1.434761 0.042354
v -0.045269 1.435510 -0.133453
v 0.072596 1.488302 -0.066455
v 0.066393 1.488587 0.074123
v -0.074742 1.487717 0.066449
v -0.067789 1.488119 -0.073061
v 0.072645 1.604069 -0.073188
v 0.072645 1.604069 0.074826
v -0.075369 1.604069 0.074826
v -0.075369 1.604069 -0.073188
v 0.185504 1.638544 -0.186047
v 0.185504 1.638544 0.187685
v -0.188228 1.638544 0.187685
v -0.188228 1.638544 -0.186047
v 0.185504 1.996595 -0.186047
v 0.185504 1.996595 0.187685
v -0.188228 1.996595 0.187685
v -0.188228 1.996595 -0.186047
v -0.133061 1.279808 -0.023383
v -0.074836 1.280157 -0.114406
v -0.135004 1.388265 -0.028306
v -0.073854 1.388642 -0.118033
v -0.318392 1.232897 -0.196685
v -0.278236 1.277367 -0.287240
v -0.401817 1.302339 -0.199578
v -0.361661 1.346809 -0.290133
v 0.147360 1.272339 0.017891
v 0.084311 1.273154 0.121181
v 0.150339 1.394058 0.023065
v 0.083689 1.394924 0.125141
v 0.380235 1.258893 0.251917
v 0.259294 1.267069 0.264918
v 0.389528 1.380015 0.262197
v 0.268587 1.388191 0.275198
v 0.120286 1.127638 -0.119109
v 0.105227 1.115985 0.105421
v -0.119270 1.127591 0.120446
v -0.104382 1.115978 -0.104188
v 0.125565 0.950111 -0.127982
v 0.123372 0.928027 0.105155
v -0.124357 0.949137 0.128746
v -0.122590 0.928251 -0.106139
v -0.173315 1.118083 0.090754
v -0.169334 1.097198 -0.101209
v -0.172867 1.050981 0.122582
v -0.174257 0.909240 -0.013831
v 0.168718 1.116656 -0.089275
v 0.164493 1.096756 0.100322
v 0.169493 1.055137 -0.124182
v 0.168853 0.912007 0.007533
v 0.308709 1.135908 -0.052017
v 0.308367 1.059353 0.110608
v 0.309078 1.063754 -0.125917
v 0.308378 0.907084 -0.002168
v -0.304995 1.136962 0.053715
v -0.305742 1.060756 -0.113006
v -0.304119 1.060967 0.125650
v -0.305651 0.904725 -0.003138
v -0.170896 0.718909 0.495737
v -0.172395 0.628237 0.314695
v -0.302245 0.718847 0.496855
v -0.303744 0.628175 0.315813
v 0.170319 0.812191 -0.425403
v 0.169576 0.618757 -0.474821
v 0.309865 0.811634 -0.425320
v 0.309122 0.618199 -0.474738
v -0.478082 1.034034 -0.365156
v -0.437925 1.078504 -0.455711
v -0.561506 1.103476 -0.368049
v -0.521350 1.147946 -0.458604
v 0.410892 1.230839 0.554741
v 0.289951 1.239015 0.567743
v 0.420185 1.351961 0.565021
v 0.299244 1.360137 0.578022
v -0.168830 0.282558 0.714260
v -0.170328 0.191886 0.533217
v -0.300179 0.282496 0.715378
v -0.301678 0.191824 0.534335
v 0.171054 0.928248 -0.879690
v 0.170310 0.734813 -0.929108
v 0.310600 0.927691 -0.879607
v 0.309856 0.734256 -0.929025
vn -0.633351 0.139622 -0.761132
vn 0.663076 0.079958 -0.744255
vn -0.447371 0.279397 -0.849574
vn 0.111789 0.404340 0.907743
vn 0.788354 0.444197 -0.425581
vn 0.628864 0.023652 -0.777123
vn 0.621265 0.053316 0.781762
vn 0.064577 0.504440 0.861019
vn -0.835170 0.407117 0.369701
vn -0.689291 0.113254 0.715567
vn 0.729972 -0.681204 0.055086
vn -0.776299 -0.003815 -0.630329
vn -0.636921 -0.026460 0.770440
vn -0.391766 -0.830592 0.395703
vn -0.162786 0.366863 -0.915891
vn 0.769585 0.029603 0.637837
vn -0.397626 -0.828791 -0.393658
vn -0.605090 -0.517380 -0.605090
vn 0.395489 -0.827357 -0.398785
vn 0.395978 -0.828547 0.395825
vn 0.605090 -0.517380 0.605090
vn 0.605090 -0.517380 -0.605090
vn -0.605090 -0.517380 0.605090
vn -0.841121 0.538285 0.052370
vn -0.398389 0.381878 -0.833918
vn 0.800592 0.567370 -0.192633
vn -0.732170 -0.602557 0.317484
vn 0.463057 0.264748 0.845851
vn -0.409986 0.375378 0.831233
vn 0.476241 -0.650410 0.591693
vn 0.433027 0.366283 -0.823573
vn 0.430128 -0.611713 -0.663900
vn -0.410138 -0.621815 0.667165
vn -0.449049 -0.652120 -0.610767
vn 0.549699 -0.623707 -0.555650
vn -0.517075 0.454604 -0.725181
vn -0.145085 0.463729 -0.873989
vn 0.458449 0.414869 0.785913
vn -0.196936 0.851741 0.485488
vn -0.558672 -0.656148 0.507218
vn 0.170415 0.440504 0.881405
vn 0.208167 0.864254 -0.457869
vn -0.651601 -0.707755 0.272835
vn 0.659810 -0.686361 -0.305795
vn 0.731162 0.617756 -0.289376
vn 0.657094 -0.655538 -0.372051
vn 0.586627 -0.665304 0.461715
vn -0.468001 0.835627 0.287484
vn 0.674642 0.481887 0.559099
vn -0.558855 -0.587848 0.584857
vn -0.577410 -0.766839 0.280190
vn -0.470809 0.559313 0.682241
vn -0.709616 0.354015 0.609149
vn -0.153996 0.895657 -0.417158
vn 0.760491 -0.061312 -0.646443
vn -0.531693 0.230049 -0.815088
vn -0.071535 -0.981292 0.178655
vn -0.958708 -0.242836 0.147893
vn 0.355449 -0.508377 -0.784326
vn 0.084109 -0.880001 0.467422
vn 0.539872 0.837001 -0.089053
vn 0.526048 0.175329 0.832148
vn 0.699942 0.533189 -0.475112
vn 0.658406 -0.533708 0.530656
vn 0.626484 -0.770745 0.115757
vn -0.632221 -0.766381 0.113620
vn 0.576098 -0.418775 -0.701926
vn -0.822077 0.554552 -0.128849
vn -0.578570 -0.414167 -0.702628
vn -0.574267 0.704581 -0.416791
vn 0.829188 0.545579 -0.121372
vn 0.580370 0.699973 -0.416120
vn -0.682150 -0.465560 -0.563829
vn -0.536363 0.836360 0.113071
vn -0.527573 0.185522 -0.828974
vn -0.688070 0.516587 0.509507
vn -0.664083 0.447188 0.599139
vn 0.673391 0.447798 0.588183
vn 0.584033 -0.257393 0.769799
vn -0.758995 -0.403272 -0.511155
vn 0.575488 -0.774468 -0.262581
vn -0.579150 -0.775018 -0.252754
vn 0.749931 -0.405133 -0.522904
vn -0.570605 -0.257942 0.779626
vn -0.577349 0.577349 0.577349
vn 0.577349 0.577349 -0.577349
vn -0.577349 0.577349 -0.577349
vn 0.577349 0.577349 0.577349
s 1
f 4//1 1//2 44//3
f 6//4 5//5 9//6
f 6//4 2//7 36//8
f 2//7 6//4 7//9
f 4//1 3//10 26//11
f 5//5 1//2 4//1
f 12//12 11//13 15//14
f 5//5 8//15 12//12
f 7//9 6//4 10//16
f 8//15 7//9 11//13
f 16//17 15//14 20//18
f 10//16 9//6 13//19
f 9//6 12//12 16//17
f 11//13 10//16 14//20
f 14//20 13//19 18//21
f 13//19 16//17 17//22
f 15//14 14//20 19//23
f 3//10 7//9 27//24
f 8//15 4//1 28//25
f 7//9 8//15 28//25
f 5//5 6//4 36//8
f 1//2 5//5 35//26
f 2//7 1//2 34//27
f 42//28 43//29 46//30
f 3//10 4//1 43//29
f 2//7 3//10 42//28
f 1//2 2//7 41//31
f 45//32 46//30 47//33
f 44//3 48//34 52//35
f 46//30 45//32 55//36
f 44//3 41//31 48//34
f 43//29 44//3 50//37
f 48//34 47//33 51//38
f 47//33 43//29 49//39
f 42//28 46//30 56//40
f 41//31 42//28 54//41
f 45//32 41//31 53//42
f 1//2 41//31 44//3
f 10//16 6//4 9//6
f 2//7 34//27 36//8
f 3//10 2//7 7//9
f 3//10 25//43 26//11
f 8//15 5//5 4//1
f 16//17 12//12 15//14
f 9//6 5//5 12//12
f 11//13 7//9 10//16
f 12//12 8//15 11//13
f 15//14 19//23 20//18
f 14//20 10//16 13//19
f 13//19 9//6 16//17
f 15//14 11//13 14//20
f 13//19 17//22 18//21
f 16//17 20//18 17//22
f 14//20 18//21 19//23
f 25//43 3//10 27//24
f 4//1 26//11 28//25
f 27//24 7//9 28//25
f 35//26 5//5 36//8
f 33//44 1//2 35//26
f 1//2 33//44 34//27
f 43//29 47//33 46//30
f 4//1 44//3 43//29
f 3//10 43//29 42//28
f 2//7 42//28 41//31
f 48//34 45//32 47//33
f 50//37 44//3 52//35
f 56//40 46//30 55//36
f 41//31 45//32 48//34
f 49//39 43//29 50//37
f 52//35 48//34 51//38
f 51//38 47//33 49//39
f 54//41 42//28 56//40
f 53//42 41//31 54//41
f 55//36 45//32 53//42
f 35//26 36//8 39//45
f 37//46 39//45 77//47
f 34//27 33//44 37//46
f 33//44 35//26 39//45
f 36//8 34//27 40//48
f 77//47 79//49 78//50
f 40//48 38//51 80//52
f 39//45 40//48 79//49
f 38//51 37//46 78//50
f 36//8 40//48 39//45
f 39//45 79//49 77//47
f 38//51 34//27 37//46
f 37//46 33//44 39//45
f 34//27 38//51 40//48
f 79//49 80//52 78//50
f 38//51 78//50 80//52
f 40//48 80//52 79//49
f 37//46 77//47 78//50
f 25//43 27//24 31//53
f 32//54 30//55 76//56
f 28//25 26//11 32//54
f 27//24 28//25 31//53
f 26//11 25//43 30//55
f 73//57 75//58 74//59
f 31//53 32//54 75//58
f 30//55 29//60 74//59
f 29//60 31//53 73//57
f 29//60 25//43 31//53
f 30//55 74//59 76//56
f 26//11 30//55 32//54
f 28//25 32//54 31//53
f 25//43 29//60 30//55
f 75//58 76//56 74//59
f 32//54 76//56 75//58
f 29//60 73//57 74//59
f 31//53 75//58 73//57
f 55//36 53//42 57//61
f 57//61 58//62 59//63
f 53//42 54//41 58//62
f 60//64 56//40 72//65
f 54//41 56//40 60//64
f 72//65 70//66 88//67
f 56//40 55//36 70//66
f 59//63 60//64 72//65
f 55//36 59//63 69//68
f 86//69 85//70 88//67
f 70//66 69//68 86//69
f 71//71 72//65 87//72
f 69//68 71//71 85//70
f 59//63 55//36 57//61
f 58//62 60//64 59//63
f 57//61 53//42 58//62
f 56//40 70//66 72//65
f 58//62 54//41 60//64
f 70//66 86//69 88//67
f 55//36 69//68 70//66
f 71//71 59//63 72//65
f 59//63 71//71 69//68
f 85//70 87//72 88//67
f 69//68 85//70 86//69
f 72//65 88//67 87//72
f 71//71 87//72 85//70
f 50//37 52//35 64//73
f 61//74 62//75 64//73
f 49//39 50//37 62//75
f 63//76 64//73 67//77
f 51//38 49//39 61//74
f 65//78 67//77 81//79
f 52//35 51//38 65//78
f 51//38 63//76 65//78
f 64//73 52//35 68//80
f 82//81 81//79 84//82
f 66//83 65//78 82//81
f 67//77 68//80 83//84
f 68//80 66//83 84//82
f 62//75 50//37 64//73
f 63//76 61//74 64//73
f 61//74 49//39 62//75
f 64//73 68//80 67//77
f 63//76 51//38 61//74
f 67//77 83//84 81//79
f 66//83 52//35 65//78
f 63//76 67//77 65//78
f 52//35 66//83 68//80
f 81//79 83//84 84//82
f 65//78 81//79 82//81
f 68//80 84//82 83//84
f 66//83 82//81 84//82
f 19//23 18//21 23//85
f 21//86 24//87 22//88
f 20//18 19//23 24//87
f 18//21 17//22 22//88
f 17//22 20//18 21//86
f 18//21 22//88 23//85
f 24//87 23//85 22//88
f 19//23 23//85 24//87
f 17//22 21//86 22//88
f 20//18 24//87 21//86
