# Blender v2.69 (sub 0) OBJ File: 'model.blend'
# www.blender.org
o Cube
v 0.134614 1.344831 -0.148537
v 0.150751 1.347123 0.137785
v -0.132624 1.344885 0.151377
v -0.149812 1.346925 -0.134546
v 0.094255 1.629655 -0.177131
v 0.184195 1.627604 0.088613
v -0.089974 1.631323 0.181435
v -0.181132 1.627488 -0.083410
v 0.060852 1.642255 -0.064151
v 0.067450 1.641971 0.058651
v -0.057003 1.642711 0.066503
v -0.064372 1.642171 -0.056656
v 0.061881 1.729083 -0.059400
v 0.061881 1.729083 0.060729
v -0.058248 1.729083 0.060729
v -0.058248 1.729083 -0.059400
v 0.153478 1.757064 -0.150996
v 0.153478 1.757064 0.152326
v -0.149844 1.757064 0.152325
v -0.149844 1.757064 -0.150996
v 0.153478 2.047659 -0.150996
v 0.153478 2.047659 0.152326
v -0.149844 2.047659 0.152325
v -0.149844 2.047659 -0.150996
v -0.139780 1.401320 0.149203
v -0.200258 1.398550 -0.003839
v -0.147648 1.565969 0.154228
v -0.211414 1.563117 0.001451
v -0.458153 1.365806 0.320882
v -0.599227 1.334892 0.239904
v -0.512319 1.518010 0.357142
v -0.653393 1.487096 0.276164
v 0.154352 1.388315 -0.156505
v 0.220896 1.386600 0.016148
v 0.164451 1.572919 -0.163872
v 0.234890 1.571132 0.008157
v 0.477081 1.355571 -0.328484
v 0.520404 1.305958 -0.154643
v 0.634105 1.454482 -0.339387
v 0.677428 1.404869 -0.165546
v 0.129150 1.134498 -0.127887
v 0.139700 1.142662 0.139958
v -0.128167 1.134531 0.129431
v -0.138598 1.142668 -0.138341
v 0.125474 0.929147 -0.115427
v 0.127017 0.946561 0.132385
v -0.124557 0.929785 0.119301
v -0.125801 0.943271 -0.129782
v -0.174263 1.106863 0.105063
v -0.177071 1.119243 -0.095995
v -0.174235 0.918253 0.057923
v -0.173361 1.004304 -0.122661
v 0.169270 1.105081 -0.101709
v 0.172228 1.118632 0.095193
v 0.168889 0.916648 -0.040313
v 0.169337 1.018875 0.126858
v 0.308448 1.078214 -0.111292
v 0.308690 1.133209 0.071325
v 0.308421 0.913184 -0.035474
v 0.308915 1.025793 0.129386
v -0.305483 1.085091 0.114564
v -0.305012 1.131442 -0.076252
v -0.305625 0.914967 0.052988
v -0.304658 1.010133 -0.125737
v -0.174054 0.478916 -0.245933
v -0.172787 0.670070 -0.312704
v -0.305406 0.479697 -0.246187
v -0.304139 0.670851 -0.312959
v 0.169295 0.536802 0.216274
v 0.169749 0.604262 0.404180
v 0.308842 0.536839 0.215924
v 0.309296 0.604299 0.403829
v -0.648643 1.204265 0.714408
v -0.789717 1.173351 0.633430
v -0.702809 1.356469 0.750668
v -0.843883 1.325556 0.669690
v 0.701692 0.981044 -0.491346
v 0.745014 0.931431 -0.317506
v 0.858716 1.079955 -0.502249
v 0.902038 1.030342 -0.328408
v -0.174119 0.317984 -0.706650
v -0.172852 0.509138 -0.773421
v -0.305470 0.318766 -0.706904
v -0.304203 0.509920 -0.773676
v 0.169810 0.095502 0.374704
v 0.170264 0.162962 0.562610
v 0.309357 0.095539 0.374354
v 0.309811 0.162999 0.562260
vn -0.662923 -0.062899 -0.745994
vn 0.566912 -0.211097 -0.796258
vn 0.579363 0.081240 -0.810968
vn 0.565539 0.636952 0.523820
vn 0.110294 0.617206 -0.779015
vn 0.344005 0.869259 -0.354961
vn 0.625111 -0.096530 0.774529
vn 0.717612 0.607471 0.340526
vn -0.632649 -0.090213 0.769127
vn -0.372692 -0.438856 0.817591
vn -0.628651 0.609363 -0.483108
vn -0.368969 0.861568 -0.348552
vn -0.336772 0.874325 0.349376
vn -0.405713 -0.814692 -0.414289
vn -0.185766 0.590899 0.785028
vn 0.368572 0.865169 0.340007
vn -0.413770 -0.812922 0.409742
vn -0.605090 -0.517380 -0.605090
vn 0.407422 -0.813776 0.414411
vn 0.411603 -0.814020 -0.409772
vn 0.605090 -0.517380 0.605090
vn 0.605090 -0.517380 -0.605090
vn -0.605090 -0.517380 0.605090
vn -0.821741 0.510971 -0.252113
vn -0.378979 0.526231 0.761162
vn 0.274850 0.560167 -0.781426
vn 0.049806 -0.546709 -0.835810
vn 0.598376 0.090732 0.796045
vn -0.555528 0.109317 0.824244
vn -0.326945 -0.684957 0.651082
vn -0.574175 0.112522 -0.810938
vn 0.391217 -0.679525 -0.620624
vn 0.403119 -0.658010 0.635975
vn -0.353618 -0.679525 -0.642750
vn -0.464278 0.725944 -0.507340
vn -0.304300 0.258980 0.916684
vn -0.418470 0.506790 0.753655
vn 0.203528 0.150517 -0.967406
vn 0.393963 -0.659200 0.640492
vn 0.508927 0.730644 0.455061
vn 0.484146 0.436872 -0.758110
vn -0.508164 -0.614002 -0.603900
vn 0.538743 -0.725425 0.428297
vn -0.665975 -0.674917 -0.317667
vn 0.314158 0.765648 -0.561296
vn -0.648762 -0.118595 -0.751640
vn -0.343974 -0.617023 -0.707755
vn 0.673971 0.400403 0.620808
vn 0.631336 -0.002625 -0.775475
vn -0.074892 -0.925169 0.372021
vn -0.159215 -0.774224 0.612507
vn 0.900418 -0.310800 0.304270
vn 0.241859 0.850948 0.466201
vn -0.706137 0.575488 -0.412427
vn -0.393292 -0.664785 -0.635090
vn -0.916745 0.222816 0.331523
vn 0.444807 -0.623005 0.643361
vn 0.067080 0.438398 0.896237
vn -0.538987 -0.838618 0.078646
vn 0.609210 -0.654317 0.447951
vn 0.684927 -0.334605 -0.647206
vn 0.551347 0.317057 -0.771661
vn 0.558000 0.780114 0.282815
vn 0.704215 0.365825 0.608448
vn -0.680410 0.325999 0.656301
vn 0.683370 0.325327 0.653523
vn 0.579272 -0.348155 0.737022
vn 0.734642 -0.305948 -0.605518
vn -0.575396 -0.348460 0.739921
vn -0.578021 -0.738609 -0.346843
vn -0.737724 -0.305979 -0.601764
vn 0.576647 -0.738304 -0.349742
vn -0.562822 0.749565 -0.348338
vn -0.558550 0.368419 0.743126
vn -0.679922 -0.317057 0.661153
vn -0.705679 0.306925 -0.638569
vn -0.647694 -0.605853 0.461928
vn 0.639454 -0.611744 0.465590
vn 0.573626 -0.738853 -0.353526
vn 0.801416 0.458663 -0.383831
vn 0.580859 0.351207 -0.734306
vn -0.573779 0.358074 -0.736534
vn -0.792322 0.464888 -0.395032
vn -0.581011 -0.731986 -0.355785
vn -0.577349 0.577349 0.577349
vn 0.577349 0.577349 -0.577349
vn -0.577349 0.577349 -0.577349
vn 0.577349 0.577349 0.577349
s 1
f 4//1 1//2 41//3
f 6//4 5//5 9//6
f 6//4 2//7 36//8
f 2//7 6//4 3//9
f 4//1 3//9 25//10
f 5//5 1//2 8//11
f 12//12 11//13 16//14
f 5//5 8//11 12//12
f 7//15 6//4 10//16
f 8//11 7//15 11//13
f 16//14 15//17 20//18
f 10//16 9//6 14//19
f 9//6 12//12 13//20
f 11//13 10//16 15//17
f 14//19 13//20 18//21
f 13//20 16//14 17//22
f 15//17 14//19 19//23
f 3//9 7//15 25//10
f 8//11 4//1 28//24
f 7//15 8//11 27//25
f 5//5 6//4 35//26
f 1//2 5//5 33//27
f 2//7 1//2 33//27
f 42//28 43//29 47//30
f 3//9 4//1 44//31
f 2//7 3//9 43//29
f 1//2 2//7 42//28
f 45//32 46//33 48//34
f 44//31 48//34 50//35
f 46//33 45//32 56//36
f 44//31 41//3 45//32
f 43//29 44//31 49//37
f 48//34 47//30 52//38
f 47//30 43//29 51//39
f 42//28 46//33 54//40
f 41//3 42//28 53//41
f 45//32 41//3 55//42
f 44//31 4//1 41//3
f 10//16 6//4 9//6
f 2//7 34//43 36//8
f 6//4 7//15 3//9
f 26//44 4//1 25//10
f 1//2 4//1 8//11
f 11//13 15//17 16//14
f 9//6 5//5 12//12
f 11//13 7//15 10//16
f 12//12 8//11 11//13
f 15//17 19//23 20//18
f 9//6 13//20 14//19
f 12//12 16//14 13//20
f 10//16 14//19 15//17
f 13//20 17//22 18//21
f 16//14 20//18 17//22
f 14//19 18//21 19//23
f 7//15 27//25 25//10
f 4//1 26//44 28//24
f 8//11 28//24 27//25
f 6//4 36//8 35//26
f 5//5 35//26 33//27
f 34//43 2//7 33//27
f 46//33 42//28 47//30
f 43//29 3//9 44//31
f 42//28 2//7 43//29
f 41//3 1//2 42//28
f 46//33 47//30 48//34
f 48//34 52//38 50//35
f 45//32 55//42 56//36
f 48//34 44//31 45//32
f 44//31 50//35 49//37
f 47//30 51//39 52//38
f 43//29 49//37 51//39
f 46//33 56//36 54//40
f 42//28 54//40 53//41
f 41//3 53//41 55//42
f 35//26 36//8 39//45
f 37//46 39//45 77//47
f 34//43 33//27 37//46
f 33//27 35//26 39//45
f 36//8 34//43 40//48
f 77//47 79//49 78//50
f 40//48 38//51 80//52
f 39//45 40//48 79//49
f 38//51 37//46 78//50
f 36//8 40//48 39//45
f 39//45 79//49 77//47
f 38//51 34//43 37//46
f 37//46 33//27 39//45
f 34//43 38//51 40//48
f 79//49 80//52 78//50
f 38//51 78//50 80//52
f 40//48 80//52 79//49
f 37//46 77//47 78//50
f 25//10 27//25 31//53
f 32//54 30//55 76//56
f 28//24 26//44 32//54
f 27//25 28//24 32//54
f 26//44 25//10 30//55
f 73//57 75//58 74//59
f 31//53 32//54 75//58
f 30//55 29//60 74//59
f 29//60 31//53 73//57
f 29//60 25//10 31//53
f 30//55 74//59 76//56
f 26//44 30//55 32//54
f 31//53 27//25 32//54
f 25//10 29//60 30//55
f 75//58 76//56 74//59
f 32//54 76//56 75//58
f 29//60 73//57 74//59
f 31//53 75//58 73//57
f 55//42 53//41 59//61
f 57//62 58//63 60//64
f 53//41 54//40 57//62
f 60//64 56//36 70//65
f 54//40 56//36 58//63
f 72//66 70//65 88//67
f 56//36 55//42 70//65
f 59//61 60//64 72//66
f 55//42 59//61 71//68
f 86//69 85//70 88//67
f 70//65 69//71 86//69
f 71//68 72//66 87//72
f 69//71 71//68 85//70
f 53//41 57//62 59//61
f 59//61 57//62 60//64
f 54//40 58//63 57//62
f 72//66 60//64 70//65
f 56//36 60//64 58//63
f 70//65 86//69 88//67
f 55//42 69//71 70//65
f 71//68 59//61 72//66
f 69//71 55//42 71//68
f 85//70 87//72 88//67
f 69//71 85//70 86//69
f 72//66 88//67 87//72
f 71//68 87//72 85//70
f 50//35 52//38 62//73
f 61//74 62//73 63//75
f 49//37 50//35 61//74
f 63//75 64//76 67//77
f 51//39 49//37 63//75
f 65//78 67//77 81//79
f 52//38 51//39 65//78
f 51//39 63//75 67//77
f 64//76 52//38 66//80
f 82//81 81//79 84//82
f 66//80 65//78 82//81
f 67//77 68//83 83//84
f 68//83 66//80 84//82
f 52//38 64//76 62//73
f 62//73 64//76 63//75
f 50//35 62//73 61//74
f 64//76 68//83 67//77
f 49//37 61//74 63//75
f 67//77 83//84 81//79
f 66//80 52//38 65//78
f 65//78 51//39 67//77
f 68//83 64//76 66//80
f 81//79 83//84 84//82
f 65//78 81//79 82//81
f 68//83 84//82 83//84
f 66//80 82//81 84//82
f 19//23 18//21 23//85
f 21//86 24//87 22//88
f 20//18 19//23 24//87
f 18//21 17//22 22//88
f 17//22 20//18 21//86
f 18//21 22//88 23//85
f 24//87 23//85 22//88
f 19//23 23//85 24//87
f 17//22 21//86 22//88
f 20//18 24//87 21//86
