# Blender v2.69 (sub 0) OBJ File: 'model.blend'
# www.blender.org
o Cube
v 0.116326 1.286581 -0.115404
v 0.111152 1.286188 0.120455
v -0.116314 1.287068 0.116839
v -0.110634 1.285841 -0.118966
v 0.143827 1.503241 -0.105191
v 0.118112 1.508890 0.131613
v -0.141645 1.508547 0.103213
v -0.113927 1.508960 -0.133443
v 0.071273 1.556212 -0.066072
v 0.069321 1.556713 0.069402
v -0.071070 1.556196 0.066785
v -0.068714 1.556403 -0.068430
v 0.068556 1.661897 -0.067804
v 0.068556 1.661897 0.069322
v -0.068570 1.661897 0.069321
v -0.068570 1.661897 -0.067804
v 0.173112 1.693836 -0.172361
v 0.173112 1.693836 0.173878
v -0.173127 1.693836 0.173878
v -0.173126 1.693836 -0.172361
v 0.173112 2.025548 -0.172361
v 0.173112 2.025548 0.173878
v -0.173127 2.025548 0.173878
v -0.173126 2.025548 -0.172361
v -0.146020 1.315098 0.047518
v -0.127643 1.315017 -0.085104
v -0.167707 1.445707 0.043231
v -0.148471 1.445753 -0.089221
v -0.425065 1.232149 0.006877
v -0.403979 1.231131 -0.125290
v -0.545593 1.286924 -0.012774
v -0.524508 1.285906 -0.144940
v 0.155090 1.299766 -0.052841
v 0.136315 1.303504 0.096179
v 0.184797 1.445037 -0.051461
v 0.164986 1.449050 0.097445
v 0.410364 1.212979 -0.006661
v 0.390187 1.230636 0.141199
v 0.552416 1.260026 0.007105
v 0.532239 1.277683 0.154965
v 0.124215 1.130679 -0.122999
v 0.120506 1.127809 0.120728
v -0.123213 1.130667 0.124428
v -0.119547 1.127807 -0.119325
v 0.125512 0.938104 -0.126365
v 0.124969 0.931872 0.121694
v -0.124472 0.937813 0.127493
v -0.124042 0.932266 -0.120893
v -0.173716 1.114937 0.099924
v -0.172737 1.109731 -0.101655
v -0.173652 0.973330 0.114051
v -0.174013 0.937185 -0.085002
v 0.168972 1.113744 -0.097254
v 0.167931 1.108573 0.101525
v 0.169142 0.975637 -0.113076
v 0.168972 0.937341 0.082804
v 0.308641 1.121225 -0.090310
v 0.308550 1.100685 0.107166
v 0.308697 0.977464 -0.114181
v 0.308511 0.935418 0.080991
v -0.305125 1.121976 0.093280
v -0.305319 1.102524 -0.107307
v -0.304986 0.975275 0.115497
v -0.305384 0.935365 -0.083015
v -0.173498 0.515722 0.205671
v -0.173861 0.483867 0.005708
v -0.304851 0.515688 0.205915
v -0.305215 0.483833 0.005952
v 0.169196 0.519611 -0.215313
v 0.168977 0.460845 -0.024509
v 0.308743 0.519546 -0.215173
v 0.308525 0.460780 -0.024369
v -0.577749 0.888392 -0.014832
v -0.556664 0.887373 -0.146999
v -0.698277 0.943167 -0.034483
v -0.677192 0.942148 -0.166649
v 0.522372 0.857903 0.051025
v 0.502195 0.875560 0.198886
v 0.664424 0.904949 0.064791
v 0.644247 0.922606 0.212652
v -0.173230 0.033783 0.282444
v -0.173594 0.001929 0.082481
v -0.304583 0.033749 0.282689
v -0.304947 0.001894 0.082726
v 0.169126 0.071505 -0.353325
v 0.168907 0.012739 -0.162521
v 0.308673 0.071440 -0.353185
v 0.308454 0.012674 -0.162381
vn -0.630696 -0.074648 -0.772393
vn 0.596820 -0.095706 -0.796625
vn -0.477554 0.242805 -0.844356
vn 0.433821 0.497116 0.751427
vn 0.592486 0.480667 -0.646443
vn 0.535356 0.568590 -0.624561
vn 0.555040 -0.140507 0.819849
vn 0.394177 -0.683462 0.614338
vn -0.638356 0.468978 0.610340
vn -0.641591 -0.058992 0.764733
vn -0.645039 -0.558214 -0.521775
vn -0.570330 0.604846 -0.555712
vn -0.531999 0.580981 0.615955
vn -0.405866 -0.815943 0.411664
vn -0.475753 0.459304 -0.750084
vn 0.559557 0.609973 0.561052
vn -0.409040 -0.814661 -0.411054
vn -0.605090 -0.517380 -0.605090
vn 0.407941 -0.814112 -0.413282
vn 0.407758 -0.814753 0.412122
vn 0.605090 -0.517380 0.605090
vn 0.605090 -0.517380 -0.605090
vn -0.605090 -0.517380 0.605090
vn -0.580920 -0.689657 0.432264
vn -0.709616 0.373058 -0.597674
vn 0.614307 0.461348 0.640126
vn 0.374035 -0.786706 -0.491043
vn 0.501267 0.227851 0.834712
vn -0.476821 0.256508 0.840693
vn 0.305551 -0.660421 0.685873
vn 0.500992 0.245064 -0.829981
vn 0.306650 -0.675924 -0.670095
vn -0.275979 -0.682607 0.676626
vn -0.267281 -0.667684 -0.694784
vn 0.149937 -0.534471 -0.831751
vn -0.024476 -0.096591 -0.994995
vn -0.255287 0.641346 -0.723502
vn 0.049867 -0.132786 0.989868
vn -0.271096 0.734062 0.622578
vn -0.132969 -0.572161 0.809259
vn 0.303995 0.625874 0.718192
vn 0.316782 0.730766 -0.604633
vn -0.834346 0.404218 0.374767
vn 0.757286 0.448134 -0.475021
vn 0.667562 0.441389 -0.599567
vn -0.294443 -0.497971 -0.815638
vn -0.296579 -0.792688 -0.532548
vn -0.514450 -0.297464 0.804224
vn 0.500504 0.588061 0.635304
vn 0.794916 -0.431196 -0.426771
vn -0.451643 -0.657002 0.603565
vn 0.639882 -0.295511 0.709372
vn -0.631367 0.559557 0.536851
vn -0.435499 0.548051 -0.714103
vn 0.502091 -0.451338 -0.737632
vn -0.662923 -0.294870 -0.688131
vn 0.253151 -0.422498 0.870266
vn 0.194983 -0.758629 0.621601
vn -0.844844 -0.286081 0.452071
vn 0.376904 -0.767418 -0.518601
vn 0.570818 0.662343 -0.485214
vn 0.567614 0.495651 0.657338
vn 0.710135 0.134404 -0.691061
vn 0.699149 -0.124271 0.704062
vn 0.697745 -0.184088 0.692251
vn -0.699240 -0.183843 0.690817
vn 0.576617 -0.721976 0.382397
vn -0.715598 0.178381 -0.675344
vn -0.578051 -0.721427 0.381237
vn -0.576800 -0.381542 -0.722282
vn 0.717185 0.177709 -0.673788
vn 0.577868 -0.382092 -0.721122
vn -0.702170 -0.110569 -0.703330
vn -0.570513 0.656941 0.492813
vn -0.568041 0.501328 -0.652638
vn -0.706931 0.121616 0.696707
vn -0.701773 0.124485 0.701407
vn 0.704276 0.124882 0.698843
vn 0.578692 -0.479171 0.659902
vn -0.712851 -0.124119 -0.690237
vn 0.576617 -0.660817 -0.480392
vn -0.578051 -0.661122 -0.478256
vn 0.710288 -0.124119 -0.692862
vn -0.575976 -0.479476 0.662038
vn -0.577349 0.577349 0.577349
vn 0.577349 0.577349 -0.577349
vn -0.577349 0.577349 -0.577349
vn 0.577349 0.577349 0.577349
s 1
f 4//1 1//2 44//3
f 6//4 5//5 9//6
f 6//4 2//7 34//8
f 2//7 6//4 7//9
f 4//1 3//10 26//11
f 5//5 1//2 4//1
f 12//12 11//13 15//14
f 5//5 8//15 12//12
f 7//9 6//4 10//16
f 8//15 7//9 11//13
f 16//17 15//14 20//18
f 10//16 9//6 13//19
f 9//6 12//12 16//17
f 11//13 10//16 14//20
f 14//20 13//19 18//21
f 13//19 16//17 17//22
f 15//14 14//20 19//23
f 3//10 7//9 25//24
f 8//15 4//1 26//11
f 7//9 8//15 28//25
f 5//5 6//4 36//26
f 1//2 5//5 33//27
f 2//7 1//2 34//8
f 42//28 43//29 46//30
f 3//10 4//1 43//29
f 2//7 3//10 42//28
f 1//2 2//7 41//31
f 45//32 46//30 47//33
f 44//3 48//34 52//35
f 46//30 45//32 55//36
f 44//3 41//31 48//34
f 43//29 44//3 50//37
f 48//34 47//33 51//38
f 47//33 43//29 49//39
f 42//28 46//30 56//40
f 41//31 42//28 54//41
f 45//32 41//31 53//42
f 1//2 41//31 44//3
f 10//16 6//4 9//6
f 36//26 6//4 34//8
f 3//10 2//7 7//9
f 3//10 25//24 26//11
f 8//15 5//5 4//1
f 16//17 12//12 15//14
f 9//6 5//5 12//12
f 11//13 7//9 10//16
f 12//12 8//15 11//13
f 15//14 19//23 20//18
f 14//20 10//16 13//19
f 13//19 9//6 16//17
f 15//14 11//13 14//20
f 13//19 17//22 18//21
f 16//17 20//18 17//22
f 14//20 18//21 19//23
f 7//9 27//43 25//24
f 28//25 8//15 26//11
f 27//43 7//9 28//25
f 35//44 5//5 36//26
f 5//5 35//44 33//27
f 1//2 33//27 34//8
f 43//29 47//33 46//30
f 4//1 44//3 43//29
f 3//10 43//29 42//28
f 2//7 42//28 41//31
f 48//34 45//32 47//33
f 50//37 44//3 52//35
f 56//40 46//30 55//36
f 41//31 45//32 48//34
f 49//39 43//29 50//37
f 52//35 48//34 51//38
f 51//38 47//33 49//39
f 54//41 42//28 56//40
f 53//42 41//31 54//41
f 55//36 45//32 53//42
f 35//44 36//26 39//45
f 37//46 39//45 77//47
f 34//8 33//27 38//48
f 33//27 35//44 39//45
f 36//26 34//8 40//49
f 77//47 79//50 78//51
f 40//49 38//48 78//51
f 39//45 40//49 79//50
f 38//48 37//46 78//51
f 36//26 40//49 39//45
f 39//45 79//50 77//47
f 33//27 37//46 38//48
f 37//46 33//27 39//45
f 34//8 38//48 40//49
f 79//50 80//52 78//51
f 80//52 40//49 78//51
f 40//49 80//52 79//50
f 37//46 77//47 78//51
f 25//24 27//43 31//53
f 32//54 30//55 76//56
f 28//25 26//11 32//54
f 27//43 28//25 31//53
f 26//11 25//24 29//57
f 73//58 75//59 74//60
f 31//53 32//54 75//59
f 30//55 29//57 74//60
f 29//57 31//53 73//58
f 29//57 25//24 31//53
f 30//55 74//60 76//56
f 26//11 30//55 32//54
f 28//25 32//54 31//53
f 30//55 26//11 29//57
f 75//59 76//56 74//60
f 32//54 76//56 75//59
f 29//57 73//58 74//60
f 31//53 75//59 73//58
f 55//36 53//42 57//61
f 57//61 58//62 59//63
f 53//42 54//41 58//62
f 60//64 56//40 72//65
f 54//41 56//40 60//64
f 72//65 70//66 88//67
f 56//40 55//36 70//66
f 59//63 60//64 72//65
f 55//36 59//63 69//68
f 86//69 85//70 88//67
f 70//66 69//68 86//69
f 71//71 72//65 87//72
f 69//68 71//71 85//70
f 59//63 55//36 57//61
f 58//62 60//64 59//63
f 57//61 53//42 58//62
f 56//40 70//66 72//65
f 58//62 54//41 60//64
f 70//66 86//69 88//67
f 55//36 69//68 70//66
f 71//71 59//63 72//65
f 59//63 71//71 69//68
f 85//70 87//72 88//67
f 69//68 85//70 86//69
f 72//65 88//67 87//72
f 71//71 87//72 85//70
f 50//37 52//35 64//73
f 61//74 62//75 64//73
f 49//39 50//37 62//75
f 63//76 64//73 67//77
f 51//38 49//39 61//74
f 65//78 67//77 81//79
f 52//35 51//38 65//78
f 51//38 63//76 65//78
f 64//73 52//35 68//80
f 82//81 81//79 84//82
f 66//83 65//78 82//81
f 67//77 68//80 83//84
f 68//80 66//83 84//82
f 62//75 50//37 64//73
f 63//76 61//74 64//73
f 61//74 49//39 62//75
f 64//73 68//80 67//77
f 63//76 51//38 61//74
f 67//77 83//84 81//79
f 66//83 52//35 65//78
f 63//76 67//77 65//78
f 52//35 66//83 68//80
f 81//79 83//84 84//82
f 65//78 81//79 82//81
f 68//80 84//82 83//84
f 66//83 82//81 84//82
f 19//23 18//21 23//85
f 21//86 24//87 22//88
f 20//18 19//23 24//87
f 18//21 17//22 22//88
f 17//22 20//18 21//86
f 18//21 22//88 23//85
f 24//87 23//85 22//88
f 19//23 23//85 24//87
f 17//22 21//86 22//88
f 20//18 24//87 21//86
