# Blender v2.69 (sub 0) OBJ File: 'model.blend'
# www.blender.org
o Cube
v 0.111299 1.269825 -0.104950
v 0.100989 1.268440 0.113272
v -0.111368 1.270322 0.105678
v -0.100235 1.268278 -0.112420
v 0.144223 1.474891 -0.080924
v 0.090930 1.480994 0.135601
v -0.142348 1.479094 0.078041
v -0.086819 1.481129 -0.138031
v 0.072738 1.530751 -0.066622
v 0.068791 1.531337 0.072236
v -0.073504 1.530535 0.067025
v -0.068969 1.530960 -0.071260
v 0.070779 1.641625 -0.070574
v 0.070779 1.641625 0.072153
v -0.071949 1.641625 0.072153
v -0.071949 1.641625 -0.070574
v 0.179606 1.674869 -0.179401
v 0.179606 1.674869 0.180981
v -0.180776 1.674869 0.180980
v -0.180776 1.674869 -0.179401
v 0.179606 2.020130 -0.179401
v 0.179606 2.020130 0.180981
v -0.180776 2.020130 0.180980
v -0.180776 2.020130 -0.179401
v -0.144932 1.300206 0.017933
v -0.107964 1.301350 -0.100365
v -0.159354 1.422405 0.012082
v -0.120549 1.423697 -0.105690
v -0.394601 1.228800 -0.079106
v -0.363846 1.243650 -0.198318
v -0.499562 1.291983 -0.098314
v -0.468807 1.306833 -0.217526
v 0.155432 1.286921 -0.023744
v 0.116098 1.291140 0.109492
v 0.176233 1.423230 -0.019190
v 0.134669 1.427734 0.113614
v 0.419093 1.206820 0.083945
v 0.347570 1.239372 0.198879
v 0.522230 1.291235 0.124219
v 0.450706 1.323787 0.239153
v 0.122685 1.129495 -0.121485
v 0.114557 1.123205 0.114768
v -0.121678 1.129469 0.122878
v -0.113642 1.123201 -0.113431
v 0.125531 0.942517 -0.127964
v 0.124342 0.929200 0.115833
v -0.124430 0.941927 0.128874
v -0.123486 0.929722 -0.115797
v -0.173553 1.116828 0.096775
v -0.171409 1.105167 -0.102338
v -0.173364 1.001544 0.123496
v -0.174162 0.921038 -0.060768
v 0.168876 1.115488 -0.094481
v 0.166593 1.104149 0.101891
v 0.169270 1.004825 -0.123811
v 0.168900 0.921567 0.056386
v 0.308680 1.129929 -0.077018
v 0.308482 1.085319 0.111864
v 0.308836 1.009171 -0.125712
v 0.308431 0.917860 0.051832
v -0.305044 1.130747 0.079764
v -0.305473 1.087438 -0.112801
v -0.304669 1.006350 0.126195
v -0.305548 0.917512 -0.055758
v -0.172757 0.571207 0.328808
v -0.173542 0.511519 0.135322
v -0.304109 0.571126 0.329366
v -0.304895 0.511438 0.135880
v 0.169539 0.616346 -0.333592
v 0.169024 0.471327 -0.196373
v 0.309086 0.616083 -0.333346
v 0.308571 0.471064 -0.196128
v -0.559108 0.931350 -0.158601
v -0.528353 0.946200 -0.277813
v -0.664069 0.994533 -0.177809
v -0.633314 1.009383 -0.297020
v 0.570198 0.941485 0.253127
v 0.498675 0.974037 0.368061
v 0.673335 1.025899 0.293401
v 0.601811 1.058451 0.408335
v -0.171857 0.104876 0.472661
v -0.172642 0.045188 0.279175
v -0.303210 0.104795 0.473220
v -0.303995 0.045107 0.279734
v 0.169532 0.294086 -0.674172
v 0.169018 0.149067 -0.536953
v 0.309079 0.293823 -0.673926
v 0.308564 0.148804 -0.536708
vn -0.635517 -0.033113 -0.771355
vn 0.618732 -0.040681 -0.784509
vn -0.460005 0.260628 -0.848781
vn 0.324046 0.463698 0.824580
vn 0.681021 0.458815 -0.570666
vn 0.571337 0.391186 -0.721458
vn 0.561602 -0.141362 0.815210
vn 0.253883 -0.568773 0.782311
vn -0.725089 0.442274 0.527787
vn -0.655202 -0.008332 0.755364
vn -0.649648 -0.443770 -0.617237
vn -0.691366 0.434400 -0.577288
vn -0.572497 0.375988 0.728599
vn -0.399518 -0.822382 0.404981
vn -0.365978 0.424451 -0.828150
vn 0.669301 0.456832 0.585925
vn -0.404370 -0.820643 -0.403729
vn -0.605090 -0.517380 -0.605090
vn 0.402417 -0.819788 -0.407392
vn 0.402905 -0.820521 0.405438
vn 0.605090 -0.517380 0.605090
vn 0.605090 -0.517380 -0.605090
vn -0.605090 -0.517380 0.605090
vn -0.578112 -0.727592 0.369304
vn -0.607685 0.387524 -0.693167
vn 0.470656 0.495437 0.730064
vn 0.457137 -0.766533 -0.450972
vn 0.481155 0.246132 0.841334
vn -0.450575 0.300882 0.840480
vn 0.374676 -0.650288 0.660817
vn 0.474960 0.290719 -0.830561
vn 0.364574 -0.656056 -0.660756
vn -0.336985 -0.665395 0.666066
vn -0.334666 -0.655416 -0.677023
vn 0.384320 -0.607990 -0.694693
vn -0.243294 0.173772 -0.954222
vn -0.200415 0.575976 -0.792505
vn 0.204382 0.121799 0.971252
vn -0.234626 0.785058 0.573229
vn -0.411603 -0.628529 0.659902
vn 0.240303 0.555895 0.795740
vn 0.270211 0.787927 -0.553270
vn -0.859218 0.454604 0.234565
vn 0.803217 0.484085 -0.347118
vn 0.735923 0.483474 -0.473922
vn 0.025666 -0.579394 -0.814631
vn 0.974181 -0.223762 -0.029756
vn 0.154180 0.758232 0.633473
vn 0.118809 -0.923856 -0.363781
vn -0.474349 -0.653890 0.589404
vn -0.638203 -0.454360 0.621448
vn 0.380993 0.046175 0.923399
vn -0.661794 0.507126 0.552080
vn -0.319742 0.670339 -0.669576
vn 0.597522 -0.318430 -0.735893
vn -0.617542 -0.128636 -0.775903
vn 0.073397 -0.855251 0.512955
vn -0.903928 -0.266915 0.334117
vn 0.359783 -0.716971 -0.597064
vn 0.145512 -0.617512 0.772973
vn 0.560076 0.749931 -0.351939
vn 0.553667 0.381573 0.740135
vn 0.711661 0.297922 -0.636189
vn 0.686392 -0.282296 0.670156
vn 0.673055 -0.454451 0.583453
vn -0.676565 -0.452864 0.580645
vn 0.575823 -0.817255 -0.021516
vn -0.743675 0.404523 -0.532243
vn -0.578845 -0.815088 -0.023560
vn -0.575854 0.023621 -0.817194
vn 0.747520 0.401959 -0.528764
vn 0.578814 0.021455 -0.815149
vn -0.695608 -0.249367 -0.673727
vn -0.559008 0.743584 0.366832
vn -0.554491 0.390973 -0.734581
vn -0.703604 0.275185 0.655110
vn -0.689352 0.259529 0.676321
vn 0.694540 0.260323 0.670675
vn 0.580645 -0.381146 0.719413
vn -0.726707 -0.251015 -0.639424
vn 0.576159 -0.721519 -0.383953
vn -0.578509 -0.722221 -0.379040
vn 0.721335 -0.251259 -0.645375
vn -0.574023 -0.381848 0.724326
vn -0.577349 0.577349 0.577349
vn 0.577349 0.577349 -0.577349
vn -0.577349 0.577349 -0.577349
vn 0.577349 0.577349 0.577349
s 1
f 4//1 1//2 44//3
f 6//4 5//5 9//6
f 6//4 2//7 34//8
f 2//7 6//4 7//9
f 4//1 3//10 26//11
f 5//5 1//2 4//1
f 12//12 11//13 15//14
f 5//5 8//15 12//12
f 7//9 6//4 10//16
f 8//15 7//9 11//13
f 16//17 15//14 20//18
f 10//16 9//6 13//19
f 9//6 12//12 16//17
f 11//13 10//16 14//20
f 14//20 13//19 18//21
f 13//19 16//17 17//22
f 15//14 14//20 19//23
f 3//10 7//9 25//24
f 8//15 4//1 26//11
f 7//9 8//15 28//25
f 5//5 6//4 36//26
f 1//2 5//5 33//27
f 2//7 1//2 34//8
f 42//28 43//29 46//30
f 3//10 4//1 43//29
f 2//7 3//10 42//28
f 1//2 2//7 41//31
f 45//32 46//30 47//33
f 44//3 48//34 52//35
f 46//30 45//32 55//36
f 44//3 41//31 48//34
f 43//29 44//3 50//37
f 48//34 47//33 51//38
f 47//33 43//29 49//39
f 42//28 46//30 56//40
f 41//31 42//28 54//41
f 45//32 41//31 53//42
f 1//2 41//31 44//3
f 10//16 6//4 9//6
f 36//26 6//4 34//8
f 3//10 2//7 7//9
f 3//10 25//24 26//11
f 8//15 5//5 4//1
f 16//17 12//12 15//14
f 9//6 5//5 12//12
f 11//13 7//9 10//16
f 12//12 8//15 11//13
f 15//14 19//23 20//18
f 14//20 10//16 13//19
f 13//19 9//6 16//17
f 15//14 11//13 14//20
f 13//19 17//22 18//21
f 16//17 20//18 17//22
f 14//20 18//21 19//23
f 7//9 27//43 25//24
f 28//25 8//15 26//11
f 27//43 7//9 28//25
f 35//44 5//5 36//26
f 5//5 35//44 33//27
f 1//2 33//27 34//8
f 43//29 47//33 46//30
f 4//1 44//3 43//29
f 3//10 43//29 42//28
f 2//7 42//28 41//31
f 48//34 45//32 47//33
f 50//37 44//3 52//35
f 56//40 46//30 55//36
f 41//31 45//32 48//34
f 49//39 43//29 50//37
f 52//35 48//34 51//38
f 51//38 47//33 49//39
f 54//41 42//28 56//40
f 53//42 41//31 54//41
f 55//36 45//32 53//42
f 35//44 36//26 39//45
f 37//46 39//45 79//47
f 34//8 33//27 37//46
f 33//27 35//44 39//45
f 36//26 34//8 40//48
f 77//49 79//47 78//50
f 40//48 38//51 80//52
f 39//45 40//48 79//47
f 38//51 37//46 78//50
f 36//26 40//48 39//45
f 77//49 37//46 79//47
f 38//51 34//8 37//46
f 37//46 33//27 39//45
f 34//8 38//51 40//48
f 79//47 80//52 78//50
f 38//51 78//50 80//52
f 40//48 80//52 79//47
f 37//46 77//49 78//50
f 25//24 27//43 31//53
f 32//54 30//55 76//56
f 28//25 26//11 32//54
f 27//43 28//25 32//54
f 26//11 25//24 30//55
f 73//57 75//58 74//59
f 31//53 32//54 75//58
f 30//55 29//60 74//59
f 29//60 31//53 73//57
f 29//60 25//24 31//53
f 30//55 74//59 76//56
f 26//11 30//55 32//54
f 31//53 27//43 32//54
f 25//24 29//60 30//55
f 75//58 76//56 74//59
f 32//54 76//56 75//58
f 29//60 73//57 74//59
f 31//53 75//58 73//57
f 55//36 53//42 57//61
f 57//61 58//62 59//63
f 53//42 54//41 58//62
f 60//64 56//40 72//65
f 54//41 56//40 60//64
f 72//65 70//66 88//67
f 56//40 55//36 70//66
f 59//63 60//64 72//65
f 55//36 59//63 69//68
f 86//69 85//70 88//67
f 70//66 69//68 86//69
f 71//71 72//65 87//72
f 69//68 71//71 85//70
f 59//63 55//36 57//61
f 58//62 60//64 59//63
f 57//61 53//42 58//62
f 56//40 70//66 72//65
f 58//62 54//41 60//64
f 70//66 86//69 88//67
f 55//36 69//68 70//66
f 71//71 59//63 72//65
f 59//63 71//71 69//68
f 85//70 87//72 88//67
f 69//68 85//70 86//69
f 72//65 88//67 87//72
f 71//71 87//72 85//70
f 50//37 52//35 64//73
f 61//74 62//75 64//73
f 49//39 50//37 62//75
f 63//76 64//73 67//77
f 51//38 49//39 61//74
f 65//78 67//77 81//79
f 52//35 51//38 65//78
f 51//38 63//76 65//78
f 64//73 52//35 68//80
f 82//81 81//79 84//82
f 66//83 65//78 82//81
f 67//77 68//80 83//84
f 68//80 66//83 84//82
f 62//75 50//37 64//73
f 63//76 61//74 64//73
f 61//74 49//39 62//75
f 64//73 68//80 67//77
f 63//76 51//38 61//74
f 67//77 83//84 81//79
f 66//83 52//35 65//78
f 63//76 67//77 65//78
f 52//35 66//83 68//80
f 81//79 83//84 84//82
f 65//78 81//79 82//81
f 68//80 84//82 83//84
f 66//83 82//81 84//82
f 19//23 18//21 23//85
f 21//86 24//87 22//88
f 20//18 19//23 24//87
f 18//21 17//22 22//88
f 17//22 20//18 21//86
f 18//21 22//88 23//85
f 24//87 23//85 22//88
f 19//23 23//85 24//87
f 17//22 21//86 22//88
f 20//18 24//87 21//86
