# Blender v2.69 (sub 0) OBJ File: 'model.blend'
# www.blender.org
o Cube
v 0.120603 1.301097 -0.124014
v 0.120315 1.301268 0.126009
v -0.120115 1.301439 0.126005
v -0.119625 1.300713 -0.123967
v 0.138450 1.530557 -0.125682
v 0.139199 1.534033 0.124322
v -0.136438 1.535137 0.124724
v -0.135615 1.533089 -0.125245
v 0.069226 1.577437 -0.065427
v 0.069206 1.577721 0.066441
v -0.068252 1.577481 0.066457
v -0.068033 1.577397 -0.065391
v 0.066429 1.677982 -0.065201
v 0.066429 1.677982 0.066660
v -0.065432 1.677982 0.066660
v -0.065432 1.677982 -0.065201
v 0.166971 1.708695 -0.165743
v 0.166971 1.708695 0.167202
v -0.165975 1.708695 0.167202
v -0.165975 1.708695 -0.165744
v 0.166971 2.027672 -0.165743
v 0.166971 2.027672 0.167202
v -0.165975 2.027672 0.167202
v -0.165975 2.027672 -0.165744
v -0.144068 1.330052 0.073011
v -0.143611 1.328191 -0.069066
v -0.169922 1.467993 0.071242
v -0.169557 1.466192 -0.070841
v -0.440646 1.238735 0.079181
v -0.433653 1.230475 -0.062501
v -0.572717 1.290287 0.069657
v -0.565724 1.282028 -0.072026
v 0.154034 1.314962 -0.077976
v 0.154907 1.316976 0.081548
v 0.186986 1.468667 -0.080270
v 0.187963 1.470865 0.079251
v 0.413751 1.227643 -0.071008
v 0.425239 1.235261 0.087934
v 0.569027 1.261938 -0.083876
v 0.580516 1.269556 0.075066
v 0.125498 1.131672 -0.124271
v 0.125498 1.131672 0.125729
v -0.124502 1.131672 0.125729
v -0.124502 1.131672 -0.124271
v 0.125498 0.934942 -0.124271
v 0.125498 0.934942 0.125729
v -0.124502 0.934942 0.125729
v -0.124502 0.934942 -0.124271
v -0.173856 1.112977 0.101972
v -0.173856 1.112977 -0.100513
v -0.173856 0.953637 0.101972
v -0.173856 0.953637 -0.100513
v 0.169051 1.111861 -0.099095
v 0.169051 1.111861 0.100554
v 0.169051 0.954753 -0.099095
v 0.169051 0.954753 0.100554
v 0.308598 1.111861 -0.099095
v 0.308598 1.111861 0.100554
v 0.308598 0.954753 -0.099095
v 0.308598 0.954753 0.100554
v -0.305210 1.112977 0.101972
v -0.305210 1.112977 -0.100513
v -0.305210 0.953637 0.101972
v -0.305210 0.953637 -0.100513
v -0.173856 0.489589 0.101972
v -0.173856 0.489589 -0.100513
v -0.305210 0.489589 0.101972
v -0.305210 0.489589 -0.100513
v 0.169051 0.477687 -0.099095
v 0.169051 0.477687 0.100554
v 0.308598 0.477687 -0.099095
v 0.308598 0.477687 0.100554
v -0.586904 0.866715 0.093649
v -0.579911 0.858455 -0.048033
v -0.718975 0.918267 0.084125
v -0.711982 0.910008 -0.057557
v 0.500955 0.837462 -0.058610
v 0.512444 0.845080 0.100331
v 0.656232 0.871757 -0.071478
v 0.667720 0.879375 0.087464
v -0.173856 0.001574 0.101972
v -0.173856 0.001574 -0.100513
v -0.305210 0.001574 0.101972
v -0.305210 0.001574 -0.100513
v 0.169051 0.008810 -0.099095
v 0.169051 0.008810 0.100554
v 0.308598 0.008810 -0.099095
v 0.308598 0.008810 0.100554
vn -0.638295 -0.087313 -0.764794
vn 0.581042 -0.134251 -0.802698
vn -0.497818 0.221686 -0.838435
vn 0.503189 0.529954 0.682546
vn 0.501144 0.513962 -0.696158
vn 0.501450 0.680776 0.533891
vn 0.575488 -0.133427 0.806818
vn 0.397015 -0.726951 0.560228
vn -0.636799 -0.086703 0.766106
vn -0.629810 -0.605640 0.486312
vn -0.551683 0.488845 -0.675741
vn -0.502762 0.679373 -0.534410
vn -0.499100 0.686880 0.528275
vn -0.411908 -0.810053 0.417249
vn -0.553148 0.498856 0.667196
vn -0.412854 -0.809564 -0.417280
vn -0.605090 -0.517380 -0.605090
vn 0.508499 0.671072 -0.539476
vn 0.411908 -0.809931 0.417493
vn 0.413007 -0.809198 -0.417798
vn 0.605090 -0.517380 0.605090
vn 0.605090 -0.517380 -0.605090
vn -0.605090 -0.517380 0.605090
vn -0.615253 -0.633442 -0.469192
vn -0.772515 0.372692 -0.514084
vn 0.679220 0.446242 -0.582629
vn 0.368175 -0.761010 -0.534104
vn 0.522660 0.206366 0.827174
vn -0.498398 0.220069 0.838527
vn 0.275796 -0.673544 0.685720
vn 0.522111 0.207007 -0.827357
vn 0.275796 -0.673544 -0.685720
vn -0.243080 -0.679983 -0.691733
vn -0.306528 0.688162 -0.657582
vn 0.049013 -0.360942 0.931272
vn -0.306528 0.688162 0.657582
vn -0.243080 -0.679983 0.691733
vn 0.007782 -0.358592 -0.933439
vn 0.359447 0.677908 0.641255
vn 0.359447 0.677908 -0.641255
vn 0.049013 -0.360942 -0.931272
vn 0.687613 0.460402 0.561388
vn -0.778130 0.384777 0.496384
vn 0.007782 -0.358592 0.933439
vn 0.656301 0.505997 0.559648
vn -0.443342 -0.482864 -0.755150
vn 0.585040 0.433332 -0.685476
vn -0.477615 -0.714835 -0.510727
vn -0.369030 -0.240028 0.897855
vn 0.646199 -0.466628 -0.603839
vn -0.394452 -0.659719 0.639637
vn 0.729362 -0.411481 0.546495
vn -0.586810 0.570147 0.574938
vn -0.538682 0.488876 -0.686117
vn 0.422285 -0.502457 -0.754448
vn -0.719291 -0.361034 -0.593463
vn 0.373638 -0.329539 0.867031
vn 0.297098 -0.712851 0.635243
vn -0.776116 -0.293924 0.557848
vn 0.353923 -0.779962 -0.516068
vn 0.707083 0.000000 -0.707083
vn 0.577349 0.577349 -0.577349
vn 0.577349 0.577349 0.577349
vn 0.707083 0.000000 0.707083
vn -0.707083 0.000000 0.707083
vn 0.577349 -0.577349 0.577349
vn -0.707083 0.000000 -0.707083
vn -0.577349 -0.577349 0.577349
vn -0.577349 -0.577349 -0.577349
vn 0.577349 -0.577349 -0.577349
vn -0.577349 0.577349 -0.577349
vn -0.577349 0.577349 0.577349
s 1
f 4//1 1//2 44//3
f 6//4 5//5 10//6
f 6//4 2//7 34//8
f 2//7 6//4 3//9
f 4//1 3//9 25//10
f 5//5 1//2 8//11
f 12//12 11//13 15//14
f 5//5 8//11 12//12
f 7//15 6//4 11//13
f 8//11 7//15 11//13
f 16//16 15//14 20//17
f 10//6 9//18 14//19
f 9//18 12//12 16//16
f 11//13 10//6 14//19
f 14//19 13//20 18//21
f 13//20 16//16 17//22
f 15//14 14//19 19//23
f 3//9 7//15 25//10
f 8//11 4//1 26//24
f 7//15 8//11 28//25
f 5//5 6//4 35//26
f 1//2 5//5 33//27
f 2//7 1//2 34//8
f 42//28 43//29 46//30
f 3//9 4//1 44//3
f 2//7 3//9 42//28
f 1//2 2//7 41//31
f 45//32 46//30 48//33
f 44//3 48//33 50//34
f 46//30 45//32 56//35
f 44//3 41//31 48//33
f 43//29 44//3 49//36
f 48//33 47//37 52//38
f 47//37 43//29 49//36
f 42//28 46//30 54//39
f 41//31 42//28 53//40
f 45//32 41//31 55//41
f 1//2 41//31 44//3
f 5//5 9//18 10//6
f 36//42 6//4 34//8
f 6//4 7//15 3//9
f 26//24 4//1 25//10
f 1//2 4//1 8//11
f 16//16 12//12 15//14
f 9//18 5//5 12//12
f 6//4 10//6 11//13
f 12//12 8//11 11//13
f 15//14 19//23 20//17
f 9//18 13//20 14//19
f 13//20 9//18 16//16
f 15//14 11//13 14//19
f 13//20 17//22 18//21
f 16//16 20//17 17//22
f 14//19 18//21 19//23
f 7//15 27//43 25//10
f 28//25 8//11 26//24
f 27//43 7//15 28//25
f 6//4 36//42 35//26
f 5//5 35//26 33//27
f 1//2 33//27 34//8
f 43//29 47//37 46//30
f 43//29 3//9 44//3
f 3//9 43//29 42//28
f 2//7 42//28 41//31
f 46//30 47//37 48//33
f 48//33 52//38 50//34
f 45//32 55//41 56//35
f 41//31 45//32 48//33
f 44//3 50//34 49//36
f 47//37 51//44 52//38
f 51//44 47//37 49//36
f 46//30 56//35 54//39
f 42//28 54//39 53//40
f 41//31 53//40 55//41
f 35//26 36//42 40//45
f 37//46 39//47 77//48
f 34//8 33//27 38//49
f 33//27 35//26 39//47
f 36//42 34//8 40//45
f 77//48 79//50 78//51
f 40//45 38//49 80//52
f 39//47 40//45 79//50
f 38//49 37//46 78//51
f 39//47 35//26 40//45
f 39//47 79//50 77//48
f 33//27 37//46 38//49
f 37//46 33//27 39//47
f 34//8 38//49 40//45
f 79//50 80//52 78//51
f 38//49 78//51 80//52
f 40//45 80//52 79//50
f 37//46 77//48 78//51
f 25//10 27//43 31//53
f 32//54 30//55 76//56
f 28//25 26//24 32//54
f 27//43 28//25 31//53
f 26//24 25//10 29//57
f 73//58 75//59 74//60
f 31//53 32//54 75//59
f 30//55 29//57 74//60
f 29//57 31//53 73//58
f 29//57 25//10 31//53
f 30//55 74//60 76//56
f 26//24 30//55 32//54
f 28//25 32//54 31//53
f 30//55 26//24 29//57
f 75//59 76//56 74//60
f 32//54 76//56 75//59
f 29//57 73//58 74//60
f 31//53 75//59 73//58
f 55//41 53//40 59//61
f 57//62 58//63 59//61
f 53//40 54//39 57//62
f 60//64 56//35 72//64
f 54//39 56//35 58//63
f 72//64 70//65 88//66
f 56//35 55//41 70//65
f 59//61 60//64 71//61
f 55//41 59//61 69//67
f 86//68 85//69 88//66
f 70//65 69//67 86//68
f 71//61 72//64 87//70
f 69//67 71//61 85//69
f 53//40 57//62 59//61
f 58//63 60//64 59//61
f 54//39 58//63 57//62
f 56//35 70//65 72//64
f 56//35 60//64 58//63
f 70//65 86//68 88//66
f 55//41 69//67 70//65
f 60//64 72//64 71//61
f 59//61 71//61 69//67
f 85//69 87//70 88//66
f 69//67 85//69 86//68
f 72//64 88//66 87//70
f 71//61 87//70 85//69
f 50//34 52//38 62//71
f 61//72 62//71 63//65
f 49//36 50//34 61//72
f 63//65 64//67 67//65
f 51//44 49//36 63//65
f 65//64 67//65 81//66
f 52//38 51//44 66//61
f 51//44 63//65 65//64
f 64//67 52//38 68//67
f 82//70 81//66 84//69
f 66//61 65//64 82//70
f 67//65 68//67 83//68
f 68//67 66//61 84//69
f 52//38 64//67 62//71
f 62//71 64//67 63//65
f 50//34 62//71 61//72
f 64//67 68//67 67//65
f 49//36 61//72 63//65
f 67//65 83//68 81//66
f 51//44 65//64 66//61
f 63//65 67//65 65//64
f 52//38 66//61 68//67
f 81//66 83//68 84//69
f 65//64 81//66 82//70
f 68//67 84//69 83//68
f 66//61 82//70 84//69
f 19//23 18//21 23//72
f 21//62 24//71 22//63
f 20//17 19//23 24//71
f 18//21 17//22 22//63
f 17//22 20//17 21//62
f 18//21 22//63 23//72
f 24//71 23//72 22//63
f 19//23 23//72 24//71
f 17//22 21//62 22//63
f 20//17 24//71 21//62
