# Blender v2.69 (sub 0) OBJ File: 'model.blend'
# www.blender.org
o Cube
v 0.128253 1.323512 -0.136632
v 0.135985 1.324534 0.132860
v -0.127074 1.323739 0.139100
v -0.135227 1.324179 -0.130250
v 0.120154 1.581594 -0.153890
v 0.164037 1.581011 0.109168
v -0.117291 1.584816 0.155527
v -0.161036 1.580585 -0.107326
v 0.065778 1.611694 -0.065473
v 0.068954 1.611594 0.063127
v -0.063484 1.611940 0.067180
v -0.066929 1.611520 -0.061639
v 0.064639 1.706181 -0.062804
v 0.064639 1.706181 0.064209
v -0.062374 1.706181 0.064209
v -0.062374 1.706181 -0.062804
v 0.161484 1.735765 -0.159649
v 0.161484 1.735765 0.161055
v -0.159220 1.735765 0.161055
v -0.159220 1.735765 -0.159650
v 0.161484 2.043013 -0.159649
v 0.161484 2.043013 0.161055
v -0.159220 2.043013 0.161055
v -0.159220 2.043013 -0.159650
v -0.146210 1.366004 0.111109
v -0.175322 1.362758 -0.039894
v -0.164057 1.517818 0.113602
v -0.194794 1.514519 -0.037425
v -0.468303 1.298757 0.198802
v -0.538562 1.266270 0.065486
v -0.575631 1.405086 0.229454
v -0.645890 1.372599 0.096138
v 0.158500 1.351635 -0.117133
v 0.191169 1.350752 0.052583
v 0.181083 1.521432 -0.123151
v 0.215684 1.520548 0.046436
v 0.460421 1.284637 -0.194974
v 0.484773 1.266070 -0.024621
v 0.618536 1.353407 -0.210080
v 0.642887 1.334840 -0.039728
v 0.127375 1.133124 -0.126129
v 0.132795 1.137319 0.133040
v -0.126385 1.133141 0.127631
v -0.131744 1.137321 -0.131500
v 0.125483 0.931325 -0.120207
v 0.126277 0.940458 0.130088
v -0.124534 0.931914 0.122765
v -0.125173 0.938936 -0.127669
v -0.174063 1.110034 0.103935
v -0.175504 1.116573 -0.098508
v -0.174076 0.932868 0.081660
v -0.173621 0.978139 -0.114933
v 0.169165 1.108597 -0.100946
v 0.170685 1.115860 0.098237
v 0.168949 0.930925 -0.072055
v 0.169188 0.985400 0.118778
v 0.308526 1.095658 -0.107841
v 0.308655 1.124931 0.087290
v 0.308487 0.928798 -0.069854
v 0.308750 0.988731 0.120587
v -0.305340 1.099516 0.110113
v -0.305095 1.123893 -0.089263
v -0.305451 0.930889 0.079344
v -0.304948 0.980927 -0.116860
v -0.174207 0.451607 -0.067677
v -0.173481 0.570406 -0.231647
v -0.305560 0.452018 -0.067960
v -0.304834 0.570818 -0.231930
v 0.169078 0.484575 0.066767
v 0.169306 0.519215 0.263388
v 0.308626 0.484620 0.066598
v 0.308853 0.519260 0.263219
v -0.708970 0.998149 0.398889
v -0.779228 0.965662 0.265573
v -0.816298 1.104478 0.429541
v -0.886557 1.071991 0.296225
v 0.626062 0.889133 -0.261759
v 0.650413 0.870566 -0.091406
v 0.784176 0.957903 -0.276865
v 0.808527 0.939337 -0.106513
v -0.174827 0.056416 -0.354004
v -0.174101 0.175216 -0.517974
v -0.306180 0.056827 -0.354287
v -0.305454 0.175627 -0.518257
v 0.169325 0.022809 0.148118
v 0.169552 0.057449 0.344738
v 0.308872 0.022854 0.147949
v 0.309099 0.057493 0.344569
vn -0.644673 -0.084750 -0.759697
vn 0.544633 -0.193548 -0.816004
vn 0.554460 0.139103 -0.820460
vn 0.542833 0.587756 0.599841
vn 0.309030 0.578234 -0.755058
vn 0.425489 0.755791 0.497696
vn 0.598102 -0.118931 0.792505
vn 0.455428 -0.729972 0.509598
vn -0.622883 -0.109836 0.774529
vn -0.603229 -0.506180 0.616321
vn -0.599841 0.554460 -0.576800
vn -0.422010 0.752892 -0.504990
vn -0.447279 0.786340 0.426130
vn -0.409986 -0.811335 -0.416669
vn 0.463179 0.771813 -0.435560
vn -0.372845 0.557573 0.741661
vn -0.413221 -0.810572 0.414960
vn -0.605090 -0.517380 -0.605090
vn 0.410077 -0.811365 0.416486
vn 0.412763 -0.810846 -0.414869
vn 0.605090 -0.517380 0.605090
vn 0.605090 -0.517380 -0.605090
vn -0.605090 -0.517380 0.605090
vn -0.604907 -0.683187 -0.409009
vn -0.603961 0.462783 0.648854
vn 0.494125 0.510666 -0.703574
vn 0.378307 -0.628834 -0.679281
vn 0.564806 0.146336 0.812098
vn -0.530106 0.160192 0.832636
vn -0.275216 -0.678213 0.681356
vn -0.539750 0.164830 -0.825495
vn 0.327403 -0.668874 -0.667379
vn 0.336222 -0.676962 0.654714
vn -0.294076 -0.688406 -0.663015
vn -0.386029 0.713797 -0.584307
vn -0.061953 -0.006470 0.998047
vn -0.365093 0.603168 0.709098
vn 0.062624 -0.078585 -0.994934
vn 0.189978 -0.595477 0.780572
vn 0.436903 0.712577 0.548906
vn 0.427869 0.566149 -0.704520
vn -0.255867 -0.627338 -0.735496
vn 0.717032 0.534654 0.447127
vn -0.813501 0.442579 -0.377209
vn 0.447279 0.620380 -0.644215
vn -0.530137 -0.271889 -0.803095
vn -0.388256 -0.693625 -0.606677
vn 0.646474 0.474044 0.597766
vn 0.666555 -0.234840 -0.707480
vn -0.225806 -0.817499 0.529771
vn -0.245705 -0.578051 0.778100
vn 0.829005 -0.358715 0.428999
vn -0.153813 0.774194 0.613941
vn -0.646352 0.523606 -0.554979
vn 0.022370 -0.598407 -0.800836
vn -0.985260 -0.123356 -0.118290
vn 0.344890 -0.676473 0.650685
vn -0.458998 0.119938 0.880276
vn -0.181341 -0.919828 -0.347880
vn 0.555559 -0.501480 0.663198
vn 0.696616 -0.172918 -0.696249
vn 0.566057 0.453932 -0.688101
vn 0.569842 0.693228 0.441206
vn 0.707816 0.188147 0.680837
vn -0.693014 0.167699 0.701102
vn 0.694540 0.167547 0.699637
vn 0.578295 -0.468215 0.668050
vn 0.720847 -0.162847 -0.673635
vn -0.576373 -0.468581 0.669454
vn -0.577685 -0.668935 -0.467696
vn -0.722495 -0.163213 -0.671804
vn 0.576983 -0.668569 -0.469100
vn -0.571764 0.672994 -0.469131
vn -0.569018 0.477187 0.669668
vn -0.694601 -0.159581 0.701437
vn -0.709342 0.162938 -0.685720
vn -0.674551 -0.329691 0.660482
vn 0.670095 -0.332621 0.663533
vn 0.574541 -0.808069 0.130009
vn 0.751427 0.287332 -0.593951
vn 0.578661 -0.130589 -0.805017
vn -0.576006 -0.126988 -0.807489
vn -0.746300 0.289773 -0.599170
vn -0.580126 -0.804437 0.127537
vn -0.577349 0.577349 0.577349
vn 0.577349 0.577349 -0.577349
vn -0.577349 0.577349 -0.577349
vn 0.577349 0.577349 0.577349
s 1
f 4//1 1//2 41//3
f 6//4 5//5 10//6
f 6//4 2//7 34//8
f 2//7 6//4 3//9
f 4//1 3//9 25//10
f 5//5 1//2 8//11
f 12//12 11//13 16//14
f 5//5 8//11 9//15
f 7//16 6//4 11//13
f 8//11 7//16 12//12
f 16//14 15//17 20//18
f 10//6 9//15 14//19
f 9//15 12//12 13//20
f 11//13 10//6 15//17
f 14//19 13//20 18//21
f 13//20 16//14 17//22
f 15//17 14//19 19//23
f 3//9 7//16 25//10
f 8//11 4//1 26//24
f 7//16 8//11 27//25
f 5//5 6//4 35//26
f 1//2 5//5 33//27
f 2//7 1//2 33//27
f 42//28 43//29 47//30
f 3//9 4//1 44//31
f 2//7 3//9 43//29
f 1//2 2//7 42//28
f 45//32 46//33 48//34
f 44//31 48//34 50//35
f 46//33 45//32 56//36
f 44//31 41//3 45//32
f 43//29 44//31 49//37
f 48//34 47//30 52//38
f 47//30 43//29 51//39
f 42//28 46//33 54//40
f 41//3 42//28 53//41
f 45//32 41//3 55//42
f 44//31 4//1 41//3
f 5//5 9//15 10//6
f 36//43 6//4 34//8
f 6//4 7//16 3//9
f 26//24 4//1 25//10
f 1//2 4//1 8//11
f 11//13 15//17 16//14
f 8//11 12//12 9//15
f 6//4 10//6 11//13
f 7//16 11//13 12//12
f 15//17 19//23 20//18
f 9//15 13//20 14//19
f 12//12 16//14 13//20
f 10//6 14//19 15//17
f 13//20 17//22 18//21
f 16//14 20//18 17//22
f 14//19 18//21 19//23
f 7//16 27//25 25//10
f 28//44 8//11 26//24
f 8//11 28//44 27//25
f 6//4 36//43 35//26
f 5//5 35//26 33//27
f 34//8 2//7 33//27
f 46//33 42//28 47//30
f 43//29 3//9 44//31
f 42//28 2//7 43//29
f 41//3 1//2 42//28
f 46//33 47//30 48//34
f 48//34 52//38 50//35
f 45//32 55//42 56//36
f 48//34 44//31 45//32
f 44//31 50//35 49//37
f 47//30 51//39 52//38
f 43//29 49//37 51//39
f 46//33 56//36 54//40
f 42//28 54//40 53//41
f 41//3 53//41 55//42
f 35//26 36//43 39//45
f 37//46 39//45 77//47
f 34//8 33//27 37//46
f 33//27 35//26 39//45
f 36//43 34//8 40//48
f 77//47 79//49 78//50
f 40//48 38//51 80//52
f 39//45 40//48 79//49
f 38//51 37//46 78//50
f 36//43 40//48 39//45
f 39//45 79//49 77//47
f 38//51 34//8 37//46
f 37//46 33//27 39//45
f 34//8 38//51 40//48
f 79//49 80//52 78//50
f 38//51 78//50 80//52
f 40//48 80//52 79//49
f 37//46 77//47 78//50
f 25//10 27//25 31//53
f 32//54 30//55 76//56
f 28//44 26//24 32//54
f 27//25 28//44 32//54
f 26//24 25//10 30//55
f 73//57 75//58 74//59
f 31//53 32//54 75//58
f 30//55 29//60 74//59
f 29//60 31//53 73//57
f 29//60 25//10 31//53
f 30//55 74//59 76//56
f 26//24 30//55 32//54
f 31//53 27//25 32//54
f 25//10 29//60 30//55
f 75//58 76//56 74//59
f 32//54 76//56 75//58
f 29//60 73//57 74//59
f 31//53 75//58 73//57
f 55//42 53//41 59//61
f 57//62 58//63 60//64
f 53//41 54//40 57//62
f 60//64 56//36 70//65
f 54//40 56//36 58//63
f 72//66 70//65 88//67
f 56//36 55//42 70//65
f 59//61 60//64 72//66
f 55//42 59//61 71//68
f 86//69 85//70 88//67
f 70//65 69//71 86//69
f 71//68 72//66 87//72
f 69//71 71//68 85//70
f 53//41 57//62 59//61
f 59//61 57//62 60//64
f 54//40 58//63 57//62
f 72//66 60//64 70//65
f 56//36 60//64 58//63
f 70//65 86//69 88//67
f 55//42 69//71 70//65
f 71//68 59//61 72//66
f 69//71 55//42 71//68
f 85//70 87//72 88//67
f 69//71 85//70 86//69
f 72//66 88//67 87//72
f 71//68 87//72 85//70
f 50//35 52//38 62//73
f 61//74 62//73 63//75
f 49//37 50//35 61//74
f 63//75 64//76 67//77
f 51//39 49//37 63//75
f 65//78 67//77 81//79
f 52//38 51//39 65//78
f 51//39 63//75 67//77
f 64//76 52//38 66//80
f 82//81 81//79 84//82
f 66//80 65//78 82//81
f 67//77 68//83 83//84
f 68//83 66//80 84//82
f 52//38 64//76 62//73
f 62//73 64//76 63//75
f 50//35 62//73 61//74
f 64//76 68//83 67//77
f 49//37 61//74 63//75
f 67//77 83//84 81//79
f 66//80 52//38 65//78
f 65//78 51//39 67//77
f 68//83 64//76 66//80
f 81//79 83//84 84//82
f 65//78 81//79 82//81
f 68//83 84//82 83//84
f 66//80 82//81 84//82
f 19//23 18//21 23//85
f 21//86 24//87 22//88
f 20//18 19//23 24//87
f 18//21 17//22 22//88
f 17//22 20//18 21//86
f 18//21 22//88 23//85
f 24//87 23//85 22//88
f 19//23 23//85 24//87
f 17//22 21//86 22//88
f 20//18 24//87 21//86
