# Blender v2.69 (sub 0) OBJ File: 'model.blend'
# www.blender.org
o Cube
v 0.140441 1.367333 -0.160795
v 0.165740 1.371586 0.141456
v -0.137468 1.367131 0.163894
v -0.164457 1.371484 -0.137490
v 0.059239 1.679120 -0.195689
v 0.200051 1.678790 0.061676
v -0.052848 1.678965 0.202761
v -0.196058 1.678701 -0.052361
v 0.054045 1.672441 -0.061113
v 0.064433 1.672213 0.052629
v -0.048244 1.673135 0.064091
v -0.059948 1.672731 -0.050042
v 0.057846 1.749241 -0.054606
v 0.057846 1.749241 0.055828
v -0.052588 1.749241 0.055828
v -0.052588 1.749241 -0.054606
v 0.142050 1.774963 -0.138810
v 0.142050 1.774963 0.140032
v -0.136792 1.774963 0.140032
v -0.136792 1.774963 -0.138810
v 0.142050 2.042106 -0.138810
v 0.142050 2.042106 0.140032
v -0.136792 2.042106 0.140032
v -0.136792 2.042106 -0.138810
v -0.123743 1.439088 0.188800
v -0.218554 1.439088 0.041040
v -0.119178 1.616707 0.194254
v -0.219144 1.616707 0.047436
v -0.409146 1.439088 0.441295
v -0.586749 1.439088 0.443661
v -0.409146 1.616707 0.441295
v -0.586749 1.616707 0.443661
v 0.140644 1.428186 -0.197797
v 0.244529 1.428186 -0.029838
v 0.135593 1.627609 -0.203621
v 0.245553 1.627609 -0.037253
v 0.459158 1.446072 -0.474735
v 0.527755 1.360132 -0.308368
v 0.615017 1.570481 -0.474735
v 0.683615 1.484541 -0.308368
v 0.131024 1.135948 -0.129742
v 0.146986 1.148300 0.147257
v -0.130048 1.135998 0.131330
v -0.145829 1.148308 -0.145559
v 0.125471 0.928452 -0.110057
v 0.127798 0.953015 0.132674
v -0.124572 0.928509 0.115275
v -0.126462 0.947976 -0.130719
v -0.174476 1.103412 0.105389
v -0.178733 1.121105 -0.093015
v -0.174338 0.909485 0.030327
v -0.173075 1.032619 -0.123876
v 0.169382 1.101412 -0.101381
v 0.173849 1.120211 0.091631
v 0.168872 0.912220 -0.004713
v 0.169494 1.054299 0.124655
v 0.308368 1.059985 -0.109397
v 0.308703 1.136518 0.053088
v 0.308402 0.908240 0.003129
v 0.309089 1.064968 0.126803
v -0.305641 1.069434 0.115426
v -0.304961 1.135782 -0.061242
v -0.305735 0.905540 0.022422
v -0.304338 1.041801 -0.127348
v -0.173334 0.577378 -0.412853
v -0.171937 0.771541 -0.355419
v -0.304684 0.578331 -0.412881
v -0.303287 0.772494 -0.355448
v 0.169694 0.632210 0.346022
v 0.170380 0.731023 0.519502
v 0.309240 0.632185 0.345484
v 0.309926 0.730999 0.518963
v -0.402485 1.439088 0.941251
v -0.580088 1.439088 0.943617
v -0.402485 1.616707 0.941251
v -0.580088 1.616707 0.943617
v 0.719376 1.120070 -0.750432
v 0.787974 1.034130 -0.584065
v 0.875235 1.244478 -0.750432
v 0.943833 1.158538 -0.584065
v -0.172229 0.715796 -0.880826
v -0.170832 0.909960 -0.823392
v -0.303579 0.716750 -0.880854
v -0.302182 0.910913 -0.823420
v 0.170517 0.224788 0.578086
v 0.171204 0.323602 0.751565
v 0.310063 0.224764 0.577547
v 0.310750 0.323578 0.751027
vn -0.690054 -0.024720 -0.723289
vn 0.617634 -0.095889 -0.780572
vn 0.599384 0.028138 -0.799921
vn 0.573138 0.685415 0.449080
vn -0.113651 0.637959 -0.761620
vn 0.216071 0.935209 -0.280465
vn 0.659963 -0.059053 0.748955
vn 0.716483 0.660604 0.224036
vn -0.643788 -0.009064 0.765130
vn 0.524857 -0.631916 0.570238
vn -0.638234 0.664357 -0.388897
vn -0.284494 0.934721 -0.212867
vn -0.210730 0.934660 0.286325
vn -0.399182 -0.820093 -0.409955
vn 0.038301 0.618549 0.784783
vn 0.283273 0.933805 0.218451
vn -0.413251 -0.817835 0.400372
vn -0.605090 -0.517380 -0.605090
vn 0.403363 -0.817560 0.410901
vn 0.408979 -0.819575 -0.401227
vn 0.605090 -0.517380 0.605090
vn 0.605090 -0.517380 -0.605090
vn -0.605090 -0.517380 0.605090
vn -0.809229 0.565966 -0.157353
vn -0.104129 0.563585 0.819453
vn 0.007111 0.559313 -0.828883
vn -0.652669 -0.607074 -0.453261
vn 0.604083 0.082827 0.792566
vn -0.577471 0.061953 0.814051
vn -0.374401 -0.700583 0.607410
vn -0.601764 0.063021 -0.796167
vn 0.411298 -0.683248 -0.603290
vn 0.334941 -0.637471 0.693808
vn -0.401563 -0.666677 -0.627857
vn -0.548204 0.718619 -0.427747
vn -0.255837 -0.836665 -0.484268
vn -0.465590 0.390881 0.793970
vn 0.365947 0.328410 -0.870724
vn 0.494034 -0.684591 0.535936
vn 0.175176 0.298624 0.938139
vn 0.522324 0.281899 -0.804773
vn 0.625080 -0.699210 0.346873
vn -0.739891 -0.637684 -0.214118
vn 0.597003 0.751335 0.281137
vn 0.702322 0.336711 0.627155
vn -0.766076 -0.006623 -0.642689
vn 0.168859 0.905484 -0.389264
vn -0.349345 -0.487777 -0.799982
vn 0.553087 0.232521 -0.799982
vn 0.047823 -0.985412 0.163274
vn -0.109714 -0.895901 0.430464
vn 0.950285 -0.265053 0.163305
vn 0.530076 0.814356 0.236183
vn -0.723350 0.632923 -0.275918
vn -0.723594 -0.632862 -0.275430
vn -0.569597 0.577349 0.584979
vn 0.584979 -0.577349 0.569597
vn 0.584979 0.577349 0.569597
vn -0.569597 -0.577349 0.584979
vn 0.531205 -0.813959 0.235054
vn 0.671407 -0.488174 -0.557543
vn 0.531510 0.163884 -0.831019
vn 0.542772 0.834986 0.090274
vn 0.694113 0.536851 0.479568
vn -0.668020 0.474502 0.573199
vn 0.672353 0.473037 0.569323
vn 0.580340 -0.216010 0.785180
vn 0.749901 -0.428663 -0.503830
vn -0.574328 -0.215796 0.789636
vn -0.578295 -0.787317 -0.213691
vn -0.754234 -0.427625 -0.498184
vn 0.576373 -0.787500 -0.218146
vn -0.550157 0.809412 -0.205206
vn -0.544725 0.245735 0.801752
vn -0.663259 -0.473952 0.579150
vn -0.694266 0.441816 -0.568133
vn -0.847468 0.507462 -0.155614
vn 0.613361 -0.777306 0.139805
vn -0.623981 -0.769127 0.138035
vn 0.574633 -0.394055 -0.717277
vn 0.857479 0.494400 -0.142247
vn 0.582598 0.713187 -0.389721
vn -0.572039 0.721549 -0.389996
vn -0.580004 -0.385662 -0.717521
vn -0.577349 0.577349 0.577349
vn 0.577349 0.577349 -0.577349
vn -0.577349 0.577349 -0.577349
vn 0.577349 0.577349 0.577349
s 1
f 4//1 1//2 41//3
f 6//4 5//5 9//6
f 6//4 2//7 36//8
f 2//7 6//4 3//9
f 4//1 3//9 25//10
f 5//5 1//2 8//11
f 12//12 11//13 16//14
f 5//5 8//11 12//12
f 7//15 6//4 10//16
f 8//11 7//15 11//13
f 16//14 15//17 20//18
f 10//16 9//6 14//19
f 9//6 12//12 13//20
f 11//13 10//16 15//17
f 14//19 13//20 18//21
f 13//20 16//14 17//22
f 15//17 14//19 19//23
f 3//9 7//15 25//10
f 8//11 4//1 28//24
f 7//15 8//11 27//25
f 5//5 6//4 35//26
f 1//2 5//5 35//26
f 2//7 1//2 33//27
f 42//28 43//29 47//30
f 3//9 4//1 44//31
f 2//7 3//9 43//29
f 1//2 2//7 42//28
f 45//32 46//33 48//34
f 44//31 48//34 50//35
f 46//33 45//32 55//36
f 44//31 41//3 45//32
f 43//29 44//31 49//37
f 48//34 47//30 52//38
f 47//30 43//29 51//39
f 42//28 46//33 56//40
f 41//3 42//28 53//41
f 45//32 41//3 55//36
f 44//31 4//1 41//3
f 10//16 6//4 9//6
f 2//7 34//42 36//8
f 6//4 7//15 3//9
f 26//43 4//1 25//10
f 1//2 4//1 8//11
f 11//13 15//17 16//14
f 9//6 5//5 12//12
f 11//13 7//15 10//16
f 12//12 8//11 11//13
f 15//17 19//23 20//18
f 9//6 13//20 14//19
f 12//12 16//14 13//20
f 10//16 14//19 15//17
f 13//20 17//22 18//21
f 16//14 20//18 17//22
f 14//19 18//21 19//23
f 7//15 27//25 25//10
f 4//1 26//43 28//24
f 8//11 28//24 27//25
f 6//4 36//8 35//26
f 33//27 1//2 35//26
f 34//42 2//7 33//27
f 46//33 42//28 47//30
f 43//29 3//9 44//31
f 42//28 2//7 43//29
f 41//3 1//2 42//28
f 46//33 47//30 48//34
f 48//34 52//38 50//35
f 56//40 46//33 55//36
f 48//34 44//31 45//32
f 44//31 50//35 49//37
f 47//30 51//39 52//38
f 43//29 49//37 51//39
f 54//44 42//28 56//40
f 42//28 54//44 53//41
f 41//3 53//41 55//36
f 35//26 36//8 40//45
f 37//46 39//47 77//48
f 34//42 33//27 37//46
f 33//27 35//26 39//47
f 36//8 34//42 40//45
f 77//48 79//49 78//50
f 40//45 38//51 80//52
f 39//47 40//45 79//49
f 38//51 37//46 78//50
f 39//47 35//26 40//45
f 39//47 79//49 77//48
f 38//51 34//42 37//46
f 37//46 33//27 39//47
f 34//42 38//51 40//45
f 79//49 80//52 78//50
f 38//51 78//50 80//52
f 40//45 80//52 79//49
f 37//46 77//48 78//50
f 25//10 27//25 31//53
f 32//54 30//55 76//56
f 28//24 26//43 32//54
f 27//25 28//24 32//54
f 26//43 25//10 30//55
f 73//57 75//58 74//59
f 31//53 32//54 75//58
f 30//55 29//60 74//59
f 29//60 31//53 73//57
f 29//60 25//10 31//53
f 30//55 74//59 76//56
f 26//43 30//55 32//54
f 31//53 27//25 32//54
f 25//10 29//60 30//55
f 75//58 76//56 74//59
f 32//54 76//56 75//58
f 29//60 73//57 74//59
f 31//53 75//58 73//57
f 55//36 53//41 59//61
f 57//62 58//63 60//64
f 53//41 54//44 57//62
f 60//64 56//40 70//65
f 54//44 56//40 58//63
f 72//66 70//65 88//67
f 56//40 55//36 70//65
f 59//61 60//64 72//66
f 55//36 59//61 71//68
f 86//69 85//70 88//67
f 70//65 69//71 86//69
f 71//68 72//66 87//72
f 69//71 71//68 85//70
f 53//41 57//62 59//61
f 59//61 57//62 60//64
f 54//44 58//63 57//62
f 72//66 60//64 70//65
f 56//40 60//64 58//63
f 70//65 86//69 88//67
f 55//36 69//71 70//65
f 71//68 59//61 72//66
f 69//71 55//36 71//68
f 85//70 87//72 88//67
f 69//71 85//70 86//69
f 72//66 88//67 87//72
f 71//68 87//72 85//70
f 50//35 52//38 62//73
f 61//74 62//73 63//75
f 49//37 50//35 61//74
f 63//75 64//76 68//77
f 51//39 49//37 63//75
f 65//78 67//79 81//80
f 52//38 51//39 66//81
f 51//39 63//75 67//79
f 64//76 52//38 66//81
f 82//82 81//80 84//83
f 66//81 65//78 82//82
f 67//79 68//77 83//84
f 68//77 66//81 84//83
f 52//38 64//76 62//73
f 62//73 64//76 63//75
f 50//35 62//73 61//74
f 67//79 63//75 68//77
f 49//37 61//74 63//75
f 67//79 83//84 81//80
f 51//39 65//78 66//81
f 65//78 51//39 67//79
f 68//77 64//76 66//81
f 81//80 83//84 84//83
f 65//78 81//80 82//82
f 68//77 84//83 83//84
f 66//81 82//82 84//83
f 19//23 18//21 23//85
f 21//86 24//87 22//88
f 20//18 19//23 24//87
f 18//21 17//22 22//88
f 17//22 20//18 21//86
f 18//21 22//88 23//85
f 24//87 23//85 22//88
f 19//23 23//85 24//87
f 17//22 21//86 22//88
f 20//18 24//87 21//86
