# Blender v2.69 (sub 0) OBJ File: 'model.blend'
# www.blender.org
o Cube
v 0.122699 1.306958 -0.127311
v 0.124401 1.307313 0.127968
v -0.122048 1.307276 0.129432
v -0.123702 1.306812 -0.125788
v 0.134589 1.543907 -0.133291
v 0.145939 1.546127 0.121045
v -0.132415 1.548164 0.132977
v -0.142557 1.545331 -0.121329
v 0.068501 1.586609 -0.065570
v 0.069265 1.586778 0.065718
v -0.067212 1.586704 0.066772
v -0.067892 1.586515 -0.064564
v 0.066071 1.685772 -0.064692
v 0.066071 1.685772 0.066139
v -0.064760 1.685772 0.066139
v -0.064760 1.685772 -0.064692
v 0.165827 1.716245 -0.164448
v 0.165827 1.716245 0.165895
v -0.164516 1.716245 0.165895
v -0.164516 1.716245 -0.164448
v 0.165827 2.032728 -0.164448
v 0.165827 2.032728 0.165895
v -0.164516 2.032728 0.165895
v -0.164516 2.032728 -0.164448
v -0.145453 1.339301 0.082641
v -0.152279 1.336921 -0.062377
v -0.169483 1.480895 0.082101
v -0.176775 1.478539 -0.062955
v -0.451163 1.253094 0.108642
v -0.462521 1.236811 -0.035253
v -0.580869 1.318425 0.111488
v -0.592227 1.302143 -0.032407
v 0.156012 1.324329 -0.087858
v 0.164708 1.325426 0.074966
v 0.186560 1.482275 -0.091307
v 0.195808 1.483499 0.071516
v 0.428330 1.240790 -0.101277
v 0.442467 1.242325 0.061192
v 0.584925 1.284142 -0.115312
v 0.599062 1.285678 0.047157
v 0.125990 1.132053 -0.124758
v 0.127412 1.133153 0.127646
v -0.124996 1.132057 0.126228
v -0.126401 1.133153 -0.126166
v 0.125494 0.933893 -0.123331
v 0.125702 0.936252 0.127033
v -0.124511 0.934087 0.125035
v -0.124679 0.935909 -0.125262
v -0.173910 1.112260 0.102553
v -0.174288 1.113981 -0.100066
v -0.173918 0.947775 0.097214
v -0.173800 0.959631 -0.104833
v 0.169081 1.111074 -0.099669
v 0.169480 1.112989 0.100058
v 0.169022 0.947835 -0.092838
v 0.169084 0.962102 0.106136
v 0.308581 1.107950 -0.101818
v 0.308614 1.115609 0.097525
v 0.308566 0.947224 -0.092334
v 0.308635 0.962905 0.106699
v -0.305241 1.109689 0.104402
v -0.305178 1.116072 -0.097864
v -0.305278 0.947207 0.096663
v -0.305147 0.960307 -0.105398
v -0.173988 0.474239 0.061200
v -0.173805 0.506734 -0.138660
v -0.305342 0.474335 0.061095
v -0.305159 0.506830 -0.138765
v 0.169039 0.474730 -0.056057
v 0.169096 0.483617 0.143394
v 0.308586 0.474746 -0.056097
v 0.308643 0.483633 0.143354
v -0.632448 0.890768 0.163951
v -0.643806 0.874486 0.020056
v -0.762154 0.956100 0.166797
v -0.773512 0.939817 0.022902
v 0.536942 0.846615 -0.107003
v 0.551078 0.848150 0.055466
v 0.693537 0.889968 -0.121038
v 0.707673 0.891503 0.041430
v -0.174277 -0.007451 -0.017117
v -0.174095 0.025043 -0.216977
v -0.305631 -0.007355 -0.017222
v -0.305448 0.025139 -0.217082
v 0.169100 0.006317 -0.035185
v 0.169157 0.015204 0.164266
v 0.308647 0.006333 -0.035226
v 0.308704 0.015221 0.164225
vn -0.637806 -0.089969 -0.764885
vn 0.568590 -0.149327 -0.808924
vn 0.531114 0.188482 -0.826044
vn 0.515275 0.545488 0.660970
vn 0.453932 0.531816 -0.714896
vn 0.481674 0.701193 0.525590
vn 0.579485 -0.131352 0.804315
vn 0.406842 -0.727042 0.552995
vn -0.631214 -0.095035 0.769738
vn -0.632466 -0.581500 0.511673
vn -0.566759 0.505448 -0.650594
vn -0.480361 0.701926 -0.525864
vn -0.482131 0.717460 0.502701
vn -0.412214 -0.809778 -0.417493
vn 0.497238 0.701529 -0.510453
vn -0.508286 0.515275 0.689993
vn -0.412305 -0.809900 0.417127
vn -0.605090 -0.517380 -0.605090
vn 0.411512 -0.810205 0.417341
vn 0.412976 -0.809503 -0.417219
vn 0.605090 -0.517380 0.605090
vn 0.605090 -0.517380 -0.605090
vn -0.605090 -0.517380 0.605090
vn -0.602374 -0.658528 -0.451033
vn -0.741386 0.403607 0.536088
vn 0.637715 0.462996 -0.615558
vn 0.386639 -0.727409 -0.566851
vn 0.533982 0.190649 0.823695
vn -0.507187 0.203772 0.837367
vn -0.247322 -0.679495 0.690695
vn -0.509079 0.206885 -0.835444
vn 0.283670 -0.671743 -0.684286
vn 0.286416 -0.677541 0.677389
vn -0.252846 -0.684072 -0.684164
vn -0.326792 0.695761 -0.639607
vn 0.045442 -0.267251 0.962523
vn -0.321757 0.667592 0.671377
vn 0.009369 -0.286019 -0.958159
vn 0.036531 -0.433119 0.900571
vn 0.379650 0.687948 0.618519
vn 0.377575 0.651173 -0.658315
vn 0.005524 -0.458083 -0.888852
vn 0.700736 0.478805 0.528825
vn -0.789239 0.388958 -0.475143
vn 0.649037 0.504990 0.568926
vn -0.455428 -0.425642 -0.781884
vn 0.549394 0.487564 -0.678518
vn -0.451033 -0.715445 -0.533525
vn -0.332896 -0.344859 0.877621
vn 0.657643 -0.408490 -0.632893
vn 0.757744 -0.397626 0.517380
vn -0.350932 -0.704581 0.616749
vn -0.479080 0.636464 0.604450
vn -0.567858 0.498917 -0.654653
vn 0.333384 -0.521653 -0.785302
vn -0.816645 -0.316630 -0.482528
vn 0.438520 -0.377606 0.815516
vn 0.304697 -0.706504 0.638691
vn -0.726341 -0.187170 0.661336
vn 0.214423 -0.835963 -0.505142
vn 0.704581 -0.044740 -0.708182
vn 0.574755 0.547624 -0.608051
vn 0.575884 0.609363 0.544969
vn 0.707633 0.048494 0.704886
vn -0.703330 0.042940 0.709525
vn 0.703726 0.042940 0.709159
vn 0.577563 -0.550981 0.602283
vn 0.710624 -0.042787 -0.702261
vn -0.577105 -0.551134 0.602619
vn -0.577410 -0.602527 -0.550890
vn -0.711051 -0.042940 -0.701804
vn 0.577258 -0.602405 -0.551225
vn -0.576250 0.603504 -0.551042
vn -0.575396 0.552843 0.602680
vn -0.704184 -0.040407 0.708823
vn -0.708152 0.043214 -0.704703
vn -0.698172 -0.084353 0.710898
vn 0.697073 -0.085025 0.711905
vn 0.576464 -0.662923 0.477645
vn 0.717765 0.081332 -0.691458
vn 0.577502 -0.477615 -0.662038
vn -0.577166 -0.476791 -0.662954
vn -0.716422 0.081851 -0.692831
vn -0.578204 -0.662069 0.476730
vn -0.577349 0.577349 0.577349
vn 0.577349 0.577349 -0.577349
vn -0.577349 0.577349 -0.577349
vn 0.577349 0.577349 0.577349
s 1
f 4//1 1//2 41//3
f 6//4 5//5 10//6
f 6//4 2//7 34//8
f 2//7 6//4 3//9
f 4//1 3//9 25//10
f 5//5 1//2 8//11
f 12//12 11//13 16//14
f 5//5 8//11 9//15
f 7//16 6//4 11//13
f 8//11 7//16 12//12
f 16//14 15//17 20//18
f 10//6 9//15 14//19
f 9//15 12//12 13//20
f 11//13 10//6 15//17
f 14//19 13//20 18//21
f 13//20 16//14 17//22
f 15//17 14//19 19//23
f 3//9 7//16 25//10
f 8//11 4//1 26//24
f 7//16 8//11 27//25
f 5//5 6//4 35//26
f 1//2 5//5 33//27
f 2//7 1//2 33//27
f 42//28 43//29 47//30
f 3//9 4//1 44//31
f 2//7 3//9 43//29
f 1//2 2//7 42//28
f 45//32 46//33 48//34
f 44//31 48//34 50//35
f 46//33 45//32 56//36
f 44//31 41//3 45//32
f 43//29 44//31 49//37
f 48//34 47//30 52//38
f 47//30 43//29 51//39
f 42//28 46//33 54//40
f 41//3 42//28 53//41
f 45//32 41//3 55//42
f 44//31 4//1 41//3
f 5//5 9//15 10//6
f 36//43 6//4 34//8
f 6//4 7//16 3//9
f 26//24 4//1 25//10
f 1//2 4//1 8//11
f 11//13 15//17 16//14
f 8//11 12//12 9//15
f 6//4 10//6 11//13
f 7//16 11//13 12//12
f 15//17 19//23 20//18
f 9//15 13//20 14//19
f 12//12 16//14 13//20
f 10//6 14//19 15//17
f 13//20 17//22 18//21
f 16//14 20//18 17//22
f 14//19 18//21 19//23
f 7//16 27//25 25//10
f 28//44 8//11 26//24
f 8//11 28//44 27//25
f 6//4 36//43 35//26
f 5//5 35//26 33//27
f 34//8 2//7 33//27
f 46//33 42//28 47//30
f 43//29 3//9 44//31
f 42//28 2//7 43//29
f 41//3 1//2 42//28
f 46//33 47//30 48//34
f 48//34 52//38 50//35
f 45//32 55//42 56//36
f 48//34 44//31 45//32
f 44//31 50//35 49//37
f 47//30 51//39 52//38
f 43//29 49//37 51//39
f 46//33 56//36 54//40
f 42//28 54//40 53//41
f 41//3 53//41 55//42
f 35//26 36//43 40//45
f 37//46 39//47 77//48
f 34//8 33//27 38//49
f 33//27 35//26 39//47
f 36//43 34//8 40//45
f 77//48 79//50 80//51
f 40//45 38//49 78//52
f 39//47 40//45 79//50
f 38//49 37//46 78//52
f 39//47 35//26 40//45
f 39//47 79//50 77//48
f 33//27 37//46 38//49
f 37//46 33//27 39//47
f 34//8 38//49 40//45
f 78//52 77//48 80//51
f 80//51 40//45 78//52
f 40//45 80//51 79//50
f 37//46 77//48 78//52
f 25//10 27//25 31//53
f 32//54 30//55 76//56
f 28//44 26//24 32//54
f 27//25 28//44 32//54
f 26//24 25//10 29//57
f 73//58 75//59 74//60
f 31//53 32//54 75//59
f 30//55 29//57 74//60
f 29//57 31//53 73//58
f 29//57 25//10 31//53
f 30//55 74//60 76//56
f 26//24 30//55 32//54
f 31//53 27//25 32//54
f 30//55 26//24 29//57
f 75//59 76//56 74//60
f 32//54 76//56 75//59
f 29//57 73//58 74//60
f 31//53 75//59 73//58
f 55//42 53//41 59//61
f 57//62 58//63 60//64
f 53//41 54//40 57//62
f 60//64 56//36 70//65
f 54//40 56//36 58//63
f 72//66 70//65 88//67
f 56//36 55//42 70//65
f 59//61 60//64 72//66
f 55//42 59//61 71//68
f 86//69 85//70 88//67
f 70//65 69//71 86//69
f 71//68 72//66 87//72
f 69//71 71//68 85//70
f 53//41 57//62 59//61
f 59//61 57//62 60//64
f 54//40 58//63 57//62
f 72//66 60//64 70//65
f 56//36 60//64 58//63
f 70//65 86//69 88//67
f 55//42 69//71 70//65
f 71//68 59//61 72//66
f 69//71 55//42 71//68
f 85//70 87//72 88//67
f 69//71 85//70 86//69
f 72//66 88//67 87//72
f 71//68 87//72 85//70
f 50//35 52//38 62//73
f 61//74 62//73 63//75
f 49//37 50//35 61//74
f 63//75 64//76 67//77
f 51//39 49//37 63//75
f 65//78 67//77 81//79
f 52//38 51//39 65//78
f 51//39 63//75 67//77
f 64//76 52//38 66//80
f 82//81 81//79 84//82
f 66//80 65//78 82//81
f 67//77 68//83 83//84
f 68//83 66//80 84//82
f 52//38 64//76 62//73
f 62//73 64//76 63//75
f 50//35 62//73 61//74
f 64//76 68//83 67//77
f 49//37 61//74 63//75
f 67//77 83//84 81//79
f 66//80 52//38 65//78
f 65//78 51//39 67//77
f 68//83 64//76 66//80
f 81//79 83//84 84//82
f 65//78 81//79 82//81
f 68//83 84//82 83//84
f 66//80 82//81 84//82
f 19//23 18//21 23//85
f 21//86 24//87 22//88
f 20//18 19//23 24//87
f 18//21 17//22 22//88
f 17//22 20//18 21//86
f 18//21 22//88 23//85
f 24//87 23//85 22//88
f 19//23 23//85 24//87
f 17//22 21//86 22//88
f 20//18 24//87 21//86
