# Blender v2.69 (sub 0) OBJ File: 'model.blend'
# www.blender.org
o Cube
v 0.139391 1.363493 -0.158727
v 0.163145 1.367312 0.141002
v -0.136533 1.363322 0.161797
v -0.161864 1.367116 -0.137161
v 0.065999 1.670410 -0.193216
v 0.198247 1.669302 0.066265
v -0.060208 1.670496 0.199800
v -0.194643 1.668818 -0.057726
v 0.055202 1.667158 -0.061585
v 0.064948 1.666880 0.053492
v -0.049776 1.667800 0.064462
v -0.060737 1.667303 -0.051017
v 0.058396 1.745433 -0.055274
v 0.058395 1.745433 0.056511
v -0.053389 1.745433 0.056511
v -0.053389 1.745433 -0.055274
v 0.143630 1.771470 -0.140508
v 0.143630 1.771470 0.141745
v -0.138624 1.771470 0.141745
v -0.138623 1.771470 -0.140508
v 0.143630 2.041880 -0.140508
v 0.143630 2.041880 0.141745
v -0.138624 2.041880 0.141745
v -0.138623 2.041880 -0.140508
v -0.126205 1.431563 0.182093
v -0.215243 1.430505 0.032889
v -0.125079 1.606979 0.187946
v -0.218959 1.605884 0.039544
v -0.420042 1.421943 0.422093
v -0.594479 1.411200 0.404937
v -0.432101 1.596637 0.435304
v -0.606538 1.585894 0.418148
v 0.142889 1.420434 -0.190749
v 0.240507 1.419736 -0.021433
v 0.141497 1.617372 -0.197442
v 0.244825 1.616641 -0.029524
v 0.462650 1.424333 -0.447950
v 0.527906 1.347560 -0.278477
v 0.619369 1.543807 -0.454173
v 0.684626 1.467034 -0.284700
v 0.130711 1.135706 -0.129432
v 0.145769 1.147359 0.146038
v -0.129734 1.135753 0.131013
v -0.144621 1.147366 -0.144353
v 0.125471 0.928455 -0.110982
v 0.127668 0.951930 0.132778
v -0.124570 0.928645 0.115938
v -0.126351 0.947228 -0.130653
v -0.174441 1.103964 0.105395
v -0.178455 1.120868 -0.093501
v -0.174326 0.910420 0.034868
v -0.173120 1.028091 -0.124156
v 0.169363 1.102026 -0.101517
v 0.173578 1.120042 0.092255
v 0.168871 0.912206 -0.010841
v 0.169468 1.048343 0.125788
v 0.308381 1.063033 -0.110109
v 0.308703 1.136348 0.056250
v 0.308401 0.908250 -0.003519
v 0.309060 1.058385 0.128081
v -0.305616 1.071941 0.115550
v -0.304966 1.135342 -0.063704
v -0.305723 0.906530 0.027446
v -0.304389 1.036732 -0.127621
v -0.173480 0.555019 -0.385206
v -0.172074 0.755158 -0.354510
v -0.304831 0.555958 -0.385311
v -0.303425 0.756097 -0.354614
v 0.169614 0.612573 0.327033
v 0.170262 0.708320 0.502224
v 0.309161 0.612556 0.326527
v 0.309808 0.708303 0.501717
v -0.465810 1.381687 0.912658
v -0.640247 1.370944 0.895502
v -0.477869 1.556381 0.925869
v -0.652306 1.545638 0.908713
v 0.714053 1.081421 -0.700096
v 0.779309 1.004648 -0.530623
v 0.870772 1.200895 -0.706319
v 0.936029 1.124122 -0.536846
v -0.172568 0.628997 -0.867581
v -0.171161 0.829136 -0.836885
v -0.303918 0.629936 -0.867686
v -0.302512 0.830075 -0.836989
v 0.170382 0.201133 0.551895
v 0.171030 0.296880 0.727086
v 0.309928 0.201116 0.551388
v 0.310576 0.296863 0.726579
vn -0.684866 -0.031068 -0.727958
vn 0.615223 -0.134068 -0.776849
vn 0.596484 0.036775 -0.801752
vn 0.574633 0.676840 0.460036
vn -0.080935 0.644856 -0.759972
vn 0.239784 0.925260 -0.293893
vn 0.653615 -0.065127 0.753990
vn 0.703879 0.653066 0.279275
vn -0.644551 -0.019410 0.764275
vn 0.473373 -0.600513 0.644398
vn -0.640767 0.653188 -0.403333
vn -0.303995 0.923002 -0.235786
vn -0.235389 0.925230 0.297525
vn -0.400494 -0.818751 -0.411359
vn -0.003571 0.614765 0.788690
vn 0.300760 0.923521 0.237922
vn -0.413739 -0.816401 0.402844
vn -0.605090 -0.517380 -0.605090
vn 0.404187 -0.816645 0.411939
vn 0.409772 -0.818171 -0.403302
vn 0.605090 -0.517380 0.605090
vn 0.605090 -0.517380 -0.605090
vn -0.605090 -0.517380 0.605090
vn -0.815546 0.553056 -0.170202
vn -0.156865 0.557573 0.815149
vn 0.067446 0.586718 -0.806940
vn -0.389843 -0.611225 -0.688742
vn 0.619892 0.046571 0.783258
vn -0.574297 0.069552 0.815668
vn -0.367840 -0.697714 0.614704
vn -0.598010 0.070925 -0.798334
vn 0.430921 -0.695212 -0.575274
vn 0.444044 -0.643361 0.623585
vn -0.395184 -0.668386 -0.630116
vn -0.533982 0.721793 -0.440260
vn -0.487106 0.422040 0.764550
vn -0.458724 0.410565 0.788018
vn 0.342387 0.304514 -0.888821
vn 0.485305 -0.677267 0.552934
vn 0.572100 0.727775 0.378124
vn 0.517869 0.309580 -0.797449
vn -0.576281 -0.620960 -0.531297
vn 0.607318 -0.706839 0.362621
vn -0.721366 -0.651448 -0.234993
vn 0.210639 0.855678 -0.472640
vn -0.749504 -0.032411 -0.661184
vn -0.356365 -0.525529 -0.772515
vn 0.726829 0.325419 0.604785
vn 0.561418 0.174139 -0.808954
vn 0.943602 -0.275430 0.183538
vn -0.108585 -0.871120 0.478866
vn 0.025788 -0.975158 0.219977
vn 0.472335 0.834376 0.284066
vn -0.728477 0.618030 -0.295480
vn -0.661367 -0.652699 -0.369457
vn -0.666585 0.491989 0.559954
vn 0.559679 -0.586016 0.585894
vn 0.480392 0.562639 0.672781
vn -0.587298 -0.656667 0.473098
vn 0.571764 -0.771905 0.277871
vn 0.673818 -0.463301 -0.575549
vn 0.535234 0.190527 -0.822901
vn 0.545427 0.828700 0.125309
vn 0.696554 0.509323 0.505325
vn -0.671102 0.453963 0.586077
vn 0.675253 0.452589 0.582385
vn 0.580157 -0.229804 0.781396
vn 0.745750 -0.413923 -0.521989
vn -0.574511 -0.229652 0.785577
vn -0.578265 -0.783410 -0.227638
vn -0.749931 -0.413099 -0.516617
vn 0.576403 -0.783563 -0.231819
vn -0.552355 0.801416 -0.229316
vn -0.547136 0.265847 0.793664
vn -0.666585 -0.446883 0.596576
vn -0.697165 0.423109 -0.578722
vn -0.629688 -0.747734 0.210578
vn 0.619587 -0.755272 0.213569
vn 0.574389 -0.487259 -0.657735
vn 0.843776 0.503098 -0.186804
vn 0.582415 0.654042 -0.482681
vn -0.572222 0.662282 -0.483596
vn -0.831721 0.515488 -0.206091
vn -0.580248 -0.478988 -0.658650
vn -0.577349 0.577349 0.577349
vn 0.577349 0.577349 -0.577349
vn -0.577349 0.577349 -0.577349
vn 0.577349 0.577349 0.577349
s 1
f 4//1 1//2 41//3
f 6//4 5//5 9//6
f 6//4 2//7 36//8
f 2//7 6//4 3//9
f 4//1 3//9 25//10
f 5//5 1//2 8//11
f 12//12 11//13 16//14
f 5//5 8//11 12//12
f 7//15 6//4 10//16
f 8//11 7//15 11//13
f 16//14 15//17 20//18
f 10//16 9//6 14//19
f 9//6 12//12 13//20
f 11//13 10//16 15//17
f 14//19 13//20 18//21
f 13//20 16//14 17//22
f 15//17 14//19 19//23
f 3//9 7//15 25//10
f 8//11 4//1 28//24
f 7//15 8//11 27//25
f 5//5 6//4 35//26
f 1//2 5//5 33//27
f 2//7 1//2 33//27
f 42//28 43//29 47//30
f 3//9 4//1 44//31
f 2//7 3//9 43//29
f 1//2 2//7 42//28
f 45//32 46//33 48//34
f 44//31 48//34 50//35
f 46//33 45//32 56//36
f 44//31 41//3 45//32
f 43//29 44//31 49//37
f 48//34 47//30 52//38
f 47//30 43//29 51//39
f 42//28 46//33 54//40
f 41//3 42//28 53//41
f 45//32 41//3 55//42
f 44//31 4//1 41//3
f 10//16 6//4 9//6
f 2//7 34//43 36//8
f 6//4 7//15 3//9
f 26//44 4//1 25//10
f 1//2 4//1 8//11
f 11//13 15//17 16//14
f 9//6 5//5 12//12
f 11//13 7//15 10//16
f 12//12 8//11 11//13
f 15//17 19//23 20//18
f 9//6 13//20 14//19
f 12//12 16//14 13//20
f 10//16 14//19 15//17
f 13//20 17//22 18//21
f 16//14 20//18 17//22
f 14//19 18//21 19//23
f 7//15 27//25 25//10
f 4//1 26//44 28//24
f 8//11 28//24 27//25
f 6//4 36//8 35//26
f 5//5 35//26 33//27
f 34//43 2//7 33//27
f 46//33 42//28 47//30
f 43//29 3//9 44//31
f 42//28 2//7 43//29
f 41//3 1//2 42//28
f 46//33 47//30 48//34
f 48//34 52//38 50//35
f 45//32 55//42 56//36
f 48//34 44//31 45//32
f 44//31 50//35 49//37
f 47//30 51//39 52//38
f 43//29 49//37 51//39
f 46//33 56//36 54//40
f 42//28 54//40 53//41
f 41//3 53//41 55//42
f 35//26 36//8 39//45
f 37//46 39//45 77//47
f 34//43 33//27 37//46
f 33//27 35//26 39//45
f 36//8 34//43 40//48
f 77//47 79//49 80//50
f 40//48 38//51 80//50
f 39//45 40//48 79//49
f 38//51 37//46 78//52
f 36//8 40//48 39//45
f 39//45 79//49 77//47
f 38//51 34//43 37//46
f 37//46 33//27 39//45
f 34//43 38//51 40//48
f 78//52 77//47 80//50
f 38//51 78//52 80//50
f 40//48 80//50 79//49
f 37//46 77//47 78//52
f 25//10 27//25 31//53
f 32//54 30//55 76//56
f 28//24 26//44 32//54
f 27//25 28//24 32//54
f 26//44 25//10 30//55
f 73//57 75//58 74//59
f 31//53 32//54 75//58
f 30//55 29//60 74//59
f 29//60 31//53 73//57
f 29//60 25//10 31//53
f 30//55 74//59 76//56
f 26//44 30//55 32//54
f 31//53 27//25 32//54
f 25//10 29//60 30//55
f 75//58 76//56 74//59
f 32//54 76//56 75//58
f 29//60 73//57 74//59
f 31//53 75//58 73//57
f 55//42 53//41 59//61
f 57//62 58//63 60//64
f 53//41 54//40 57//62
f 60//64 56//36 70//65
f 54//40 56//36 58//63
f 72//66 70//65 88//67
f 56//36 55//42 70//65
f 59//61 60//64 72//66
f 55//42 59//61 71//68
f 86//69 85//70 88//67
f 70//65 69//71 86//69
f 71//68 72//66 87//72
f 69//71 71//68 85//70
f 53//41 57//62 59//61
f 59//61 57//62 60//64
f 54//40 58//63 57//62
f 72//66 60//64 70//65
f 56//36 60//64 58//63
f 70//65 86//69 88//67
f 55//42 69//71 70//65
f 71//68 59//61 72//66
f 69//71 55//42 71//68
f 85//70 87//72 88//67
f 69//71 85//70 86//69
f 72//66 88//67 87//72
f 71//68 87//72 85//70
f 50//35 52//38 62//73
f 61//74 62//73 63//75
f 49//37 50//35 61//74
f 63//75 64//76 67//77
f 51//39 49//37 63//75
f 65//78 67//77 81//79
f 52//38 51//39 65//78
f 51//39 63//75 67//77
f 64//76 52//38 66//80
f 82//81 81//79 84//82
f 66//80 65//78 82//81
f 67//77 68//83 83//84
f 68//83 66//80 84//82
f 52//38 64//76 62//73
f 62//73 64//76 63//75
f 50//35 62//73 61//74
f 64//76 68//83 67//77
f 49//37 61//74 63//75
f 67//77 83//84 81//79
f 66//80 52//38 65//78
f 65//78 51//39 67//77
f 68//83 64//76 66//80
f 81//79 83//84 84//82
f 65//78 81//79 82//81
f 68//83 84//82 83//84
f 66//80 82//81 84//82
f 19//23 18//21 23//85
f 21//86 24//87 22//88
f 20//18 19//23 24//87
f 18//21 17//22 22//88
f 17//22 20//18 21//86
f 18//21 22//88 23//85
f 24//87 23//85 22//88
f 19//23 23//85 24//87
f 17//22 21//86 22//88
f 20//18 24//87 21//86
