# Blender v2.69 (sub 0) OBJ File: 'model.blend'
# www.blender.org
o Cube
v 0.115357 1.280576 -0.111259
v 0.107995 1.279708 0.117834
v -0.115042 1.280854 0.112345
v -0.107023 1.279377 -0.116679
v 0.143211 1.496647 -0.095440
v 0.105190 1.501586 0.134314
v -0.142068 1.499405 0.093214
v -0.102083 1.500634 -0.136303
v 0.072253 1.548240 -0.067082
v 0.069423 1.548708 0.071423
v -0.072708 1.547979 0.067700
v -0.069405 1.548288 -0.070404
v 0.070305 1.657203 -0.069826
v 0.070305 1.657203 0.071388
v -0.070909 1.657203 0.071388
v -0.070909 1.657203 -0.069826
v 0.177979 1.690095 -0.177499
v 0.177979 1.690095 0.179062
v -0.178582 1.690095 0.179062
v -0.178582 1.690095 -0.177499
v 0.177979 2.031695 -0.177499
v 0.177979 2.031695 0.179062
v -0.178582 2.031695 0.179062
v -0.178582 2.031695 -0.177499
v -0.148808 1.312202 0.034619
v -0.122221 1.312758 -0.092688
v -0.165035 1.440148 0.030011
v -0.137143 1.440834 -0.096992
v -0.418584 1.234687 -0.038578
v -0.399365 1.249539 -0.166321
v -0.530634 1.300011 -0.047841
v -0.511415 1.314863 -0.175584
v 0.160849 1.300260 -0.040420
v 0.132863 1.303598 0.102729
v 0.181806 1.443376 -0.037757
v 0.152239 1.446948 0.105167
v 0.447399 1.217357 0.043130
v 0.384422 1.250302 0.170656
v 0.558570 1.306457 0.075013
v 0.495593 1.339401 0.202538
v 0.123622 1.130220 -0.122413
v 0.118201 1.126025 0.118419
v -0.122618 1.130203 0.123827
v -0.117259 1.126022 -0.117042
v 0.125520 0.939923 -0.127184
v 0.124725 0.930554 0.119334
v -0.124453 0.939674 0.128264
v -0.123829 0.930909 -0.118673
v -0.173651 1.115915 0.098535
v -0.172225 1.107711 -0.102156
v -0.173523 0.986097 0.119325
v -0.174085 0.928939 -0.074292
v 0.168935 1.114571 -0.096139
v 0.167412 1.106757 0.101832
v 0.169194 0.987660 -0.118562
v 0.168938 0.929808 0.072117
v 0.308659 1.125340 -0.084958
v 0.308522 1.094325 0.109650
v 0.308754 0.990528 -0.120086
v 0.308473 0.927041 0.069200
v -0.305086 1.126467 0.087300
v -0.305388 1.095712 -0.110332
v -0.304844 0.989323 0.121439
v -0.305464 0.926228 -0.070963
v -0.173190 0.530516 0.262761
v -0.173701 0.497889 0.062923
v -0.304543 0.530376 0.263120
v -0.305054 0.497750 0.063282
v 0.169343 0.570946 -0.266210
v 0.168927 0.448114 -0.108820
v 0.308890 0.570719 -0.266018
v 0.308473 0.447887 -0.108627
v -0.596259 0.920962 -0.101784
v -0.577040 0.935814 -0.229527
v -0.708308 0.986287 -0.111046
v -0.689090 1.001139 -0.238790
v 0.624495 0.939403 0.202392
v 0.561518 0.972347 0.329918
v 0.735666 1.028502 0.234275
v 0.672689 1.061447 0.361801
v -0.172464 0.048877 0.341394
v -0.172975 0.016251 0.141556
v -0.303817 0.048738 0.341752
v -0.304328 0.016111 0.141914
v 0.169140 0.201312 -0.554684
v 0.168723 0.078480 -0.397293
v 0.308686 0.201086 -0.554491
v 0.308270 0.078253 -0.397101
vn -0.626484 -0.071566 -0.776116
vn 0.605701 -0.080416 -0.791589
vn -0.471511 0.247169 -0.846492
vn 0.378063 0.490646 0.785028
vn 0.620258 0.482253 -0.618580
vn 0.545824 0.512589 -0.662801
vn 0.547990 -0.155705 0.821833
vn 0.343822 -0.629933 0.696371
vn -0.672353 0.460372 0.579608
vn -0.646626 -0.044038 0.761528
vn -0.643178 -0.509476 -0.571581
vn -0.622974 0.547105 -0.559038
vn -0.547472 0.508255 0.664754
vn -0.402905 -0.819239 0.408032
vn -0.428877 0.447584 -0.784661
vn 0.605518 0.559587 0.565844
vn -0.406690 -0.817805 -0.407117
vn -0.605090 -0.517380 -0.605090
vn 0.405164 -0.817316 -0.409619
vn 0.405316 -0.817988 0.408094
vn 0.605090 -0.517380 0.605090
vn 0.605090 -0.517380 -0.605090
vn -0.605090 -0.517380 0.605090
vn -0.586169 -0.700858 0.406354
vn -0.663076 0.393628 -0.636647
vn 0.528062 0.508103 0.680410
vn 0.452193 -0.747185 -0.487014
vn 0.493301 0.232734 0.838130
vn -0.466750 0.272225 0.841395
vn 0.332560 -0.655293 0.678213
vn 0.490738 0.260537 -0.831416
vn 0.331095 -0.670034 -0.664357
vn -0.304636 -0.677175 0.669759
vn -0.295267 -0.661580 -0.689261
vn 0.266427 -0.588733 -0.763146
vn -0.110996 0.029450 -0.993378
vn -0.234504 0.610614 -0.756401
vn 0.111911 -0.009186 0.993652
vn -0.254799 0.758324 0.599963
vn -0.262398 -0.625477 0.734764
vn 0.279275 0.596026 0.752800
vn 0.297189 0.755821 -0.583422
vn -0.839015 0.440870 0.318796
vn 0.763756 0.485214 -0.425642
vn 0.682028 0.491317 -0.541642
vn -0.052004 -0.573321 -0.817652
vn 0.088717 -0.921049 -0.379192
vn 0.211585 0.755577 0.619892
vn 0.968017 -0.216315 -0.127018
vn -0.409345 -0.660482 0.629414
vn -0.568926 -0.464858 0.678365
vn 0.469893 0.044221 0.881588
vn -0.605701 0.506729 0.613422
vn -0.391858 0.662862 -0.637959
vn 0.520768 -0.321696 -0.790735
vn -0.692404 -0.138829 -0.707999
vn 0.131932 -0.850795 0.508621
vn -0.863063 -0.270730 0.426344
vn 0.302591 -0.718925 -0.625751
vn 0.229163 -0.609149 0.759178
vn 0.566576 0.702109 -0.431288
vn 0.562059 0.448836 0.694693
vn 0.711570 0.205481 -0.671865
vn 0.692221 -0.197546 0.694082
vn 0.673269 -0.361492 0.644978
vn -0.675954 -0.360271 0.642842
vn 0.575884 -0.811274 0.100711
vn -0.744194 0.319681 -0.586444
vn -0.578784 -0.809412 0.099124
vn -0.576373 -0.098972 -0.811151
vn 0.747276 0.317820 -0.583544
vn 0.578295 -0.100864 -0.809534
vn -0.699789 -0.173559 -0.692892
vn -0.565569 0.699484 0.436811
vn -0.562212 0.451704 -0.692709
vn -0.704947 0.190832 0.683065
vn -0.690298 0.164556 0.704520
vn 0.693564 0.165777 0.701010
vn 0.579638 -0.476150 0.661245
vn -0.725669 -0.160741 -0.668966
vn 0.576739 -0.662221 -0.478347
vn -0.577929 -0.663442 -0.475173
vn 0.722129 -0.160253 -0.672903
vn -0.575030 -0.477371 0.664388
vn -0.577349 0.577349 0.577349
vn 0.577349 0.577349 -0.577349
vn -0.577349 0.577349 -0.577349
vn 0.577349 0.577349 0.577349
s 1
f 4//1 1//2 44//3
f 6//4 5//5 9//6
f 6//4 2//7 34//8
f 2//7 6//4 7//9
f 4//1 3//10 26//11
f 5//5 1//2 4//1
f 12//12 11//13 15//14
f 5//5 8//15 12//12
f 7//9 6//4 10//16
f 8//15 7//9 11//13
f 16//17 15//14 20//18
f 10//16 9//6 13//19
f 9//6 12//12 16//17
f 11//13 10//16 14//20
f 14//20 13//19 18//21
f 13//19 16//17 17//22
f 15//14 14//20 19//23
f 3//10 7//9 25//24
f 8//15 4//1 26//11
f 7//9 8//15 28//25
f 5//5 6//4 36//26
f 1//2 5//5 33//27
f 2//7 1//2 34//8
f 42//28 43//29 46//30
f 3//10 4//1 43//29
f 2//7 3//10 42//28
f 1//2 2//7 41//31
f 45//32 46//30 47//33
f 44//3 48//34 52//35
f 46//30 45//32 55//36
f 44//3 41//31 48//34
f 43//29 44//3 50//37
f 48//34 47//33 51//38
f 47//33 43//29 49//39
f 42//28 46//30 56//40
f 41//31 42//28 54//41
f 45//32 41//31 53//42
f 1//2 41//31 44//3
f 10//16 6//4 9//6
f 36//26 6//4 34//8
f 3//10 2//7 7//9
f 3//10 25//24 26//11
f 8//15 5//5 4//1
f 16//17 12//12 15//14
f 9//6 5//5 12//12
f 11//13 7//9 10//16
f 12//12 8//15 11//13
f 15//14 19//23 20//18
f 14//20 10//16 13//19
f 13//19 9//6 16//17
f 15//14 11//13 14//20
f 13//19 17//22 18//21
f 16//17 20//18 17//22
f 14//20 18//21 19//23
f 7//9 27//43 25//24
f 28//25 8//15 26//11
f 27//43 7//9 28//25
f 35//44 5//5 36//26
f 5//5 35//44 33//27
f 1//2 33//27 34//8
f 43//29 47//33 46//30
f 4//1 44//3 43//29
f 3//10 43//29 42//28
f 2//7 42//28 41//31
f 48//34 45//32 47//33
f 50//37 44//3 52//35
f 56//40 46//30 55//36
f 41//31 45//32 48//34
f 49//39 43//29 50//37
f 52//35 48//34 51//38
f 51//38 47//33 49//39
f 54//41 42//28 56//40
f 53//42 41//31 54//41
f 55//36 45//32 53//42
f 35//44 36//26 39//45
f 37//46 39//45 77//47
f 34//8 33//27 37//46
f 33//27 35//44 39//45
f 36//26 34//8 40//48
f 77//47 79//49 78//50
f 40//48 38//51 80//52
f 39//45 40//48 79//49
f 38//51 37//46 78//50
f 36//26 40//48 39//45
f 39//45 79//49 77//47
f 38//51 34//8 37//46
f 37//46 33//27 39//45
f 34//8 38//51 40//48
f 79//49 80//52 78//50
f 38//51 78//50 80//52
f 40//48 80//52 79//49
f 37//46 77//47 78//50
f 25//24 27//43 31//53
f 32//54 30//55 76//56
f 28//25 26//11 32//54
f 27//43 28//25 32//54
f 26//11 25//24 30//55
f 73//57 75//58 74//59
f 31//53 32//54 75//58
f 30//55 29//60 74//59
f 29//60 31//53 73//57
f 29//60 25//24 31//53
f 30//55 74//59 76//56
f 26//11 30//55 32//54
f 31//53 27//43 32//54
f 25//24 29//60 30//55
f 75//58 76//56 74//59
f 32//54 76//56 75//58
f 29//60 73//57 74//59
f 31//53 75//58 73//57
f 55//36 53//42 57//61
f 57//61 58//62 59//63
f 53//42 54//41 58//62
f 60//64 56//40 72//65
f 54//41 56//40 60//64
f 72//65 70//66 88//67
f 56//40 55//36 70//66
f 59//63 60//64 72//65
f 55//36 59//63 69//68
f 86//69 85//70 88//67
f 70//66 69//68 86//69
f 71//71 72//65 87//72
f 69//68 71//71 85//70
f 59//63 55//36 57//61
f 58//62 60//64 59//63
f 57//61 53//42 58//62
f 56//40 70//66 72//65
f 58//62 54//41 60//64
f 70//66 86//69 88//67
f 55//36 69//68 70//66
f 71//71 59//63 72//65
f 59//63 71//71 69//68
f 85//70 87//72 88//67
f 69//68 85//70 86//69
f 72//65 88//67 87//72
f 71//71 87//72 85//70
f 50//37 52//35 64//73
f 61//74 62//75 64//73
f 49//39 50//37 62//75
f 63//76 64//73 67//77
f 51//38 49//39 61//74
f 65//78 67//77 81//79
f 52//35 51//38 65//78
f 51//38 63//76 65//78
f 64//73 52//35 68//80
f 82//81 81//79 84//82
f 66//83 65//78 82//81
f 67//77 68//80 83//84
f 68//80 66//83 84//82
f 62//75 50//37 64//73
f 63//76 61//74 64//73
f 61//74 49//39 62//75
f 64//73 68//80 67//77
f 63//76 51//38 61//74
f 67//77 83//84 81//79
f 66//83 52//35 65//78
f 63//76 67//77 65//78
f 52//35 66//83 68//80
f 81//79 83//84 84//82
f 65//78 81//79 82//81
f 68//80 84//82 83//84
f 66//83 82//81 84//82
f 19//23 18//21 23//85
f 21//86 24//87 22//88
f 20//18 19//23 24//87
f 18//21 17//22 22//88
f 17//22 20//18 21//86
f 18//21 22//88 23//85
f 24//87 23//85 22//88
f 19//23 23//85 24//87
f 17//22 21//86 22//88
f 20//18 24//87 21//86
